<svg width="376" height="798" viewBox="0 0 376 798" fill="none" xmlns="http://www.w3.org/2000/svg">
<rect x="4" y="4" width="368" height="790" rx="54" stroke="black" stroke-width="8"/>
<g clip-path="url(#clip0_143_49)">
<path d="M47.376 36.1895V37.8164C47.376 38.5957 47.2985 39.2611 47.1436 39.8125C46.9932 40.3594 46.7744 40.8037 46.4873 41.1455C46.2002 41.4873 45.8561 41.738 45.4551 41.8975C45.0586 42.057 44.6143 42.1367 44.1221 42.1367C43.7301 42.1367 43.3656 42.0866 43.0283 41.9863C42.6956 41.8861 42.3949 41.7288 42.126 41.5146C41.8571 41.3005 41.627 41.0247 41.4355 40.6875C41.2487 40.3457 41.1029 39.9378 40.998 39.4639C40.8978 38.9899 40.8477 38.4408 40.8477 37.8164V36.1895C40.8477 35.4056 40.9251 34.7448 41.0801 34.207C41.235 33.6647 41.4561 33.2249 41.7432 32.8877C42.0303 32.5459 42.3721 32.2975 42.7686 32.1426C43.1696 31.9876 43.6162 31.9102 44.1084 31.9102C44.5049 31.9102 44.8695 31.9603 45.2021 32.0605C45.5394 32.1562 45.8402 32.3089 46.1045 32.5186C46.3734 32.7282 46.6012 33.0016 46.7881 33.3389C46.9795 33.6715 47.1253 34.0749 47.2256 34.5488C47.3258 35.0182 47.376 35.5651 47.376 36.1895ZM45.7285 38.0488V35.9434C45.7285 35.5469 45.7057 35.1982 45.6602 34.8975C45.6146 34.5921 45.5462 34.3346 45.4551 34.125C45.3685 33.9108 45.2591 33.7376 45.127 33.6055C44.9948 33.4688 44.8444 33.3708 44.6758 33.3115C44.5072 33.2477 44.318 33.2158 44.1084 33.2158C43.8532 33.2158 43.6253 33.266 43.4248 33.3662C43.2243 33.4619 43.0557 33.6169 42.9189 33.8311C42.7822 34.0452 42.6774 34.3278 42.6045 34.6787C42.5361 35.0251 42.502 35.4466 42.502 35.9434V38.0488C42.502 38.4499 42.5247 38.8031 42.5703 39.1084C42.6159 39.4137 42.6842 39.6758 42.7754 39.8945C42.8665 40.1087 42.9759 40.2865 43.1035 40.4277C43.2357 40.5645 43.3861 40.6647 43.5547 40.7285C43.7279 40.7923 43.917 40.8242 44.1221 40.8242C44.3818 40.8242 44.612 40.7741 44.8125 40.6738C45.013 40.5736 45.1816 40.4141 45.3184 40.1953C45.4551 39.972 45.5576 39.6826 45.626 39.3271C45.6943 38.9717 45.7285 38.5456 45.7285 38.0488ZM50.4486 40.7012H50.5853C51.2142 40.7012 51.7383 40.6191 52.1576 40.4551C52.5814 40.2865 52.9186 40.054 53.1693 39.7578C53.4199 39.4616 53.6 39.113 53.7093 38.7119C53.8187 38.3109 53.8734 37.8757 53.8734 37.4062V35.6904C53.8734 35.2848 53.8301 34.9294 53.7435 34.624C53.6615 34.3141 53.543 34.0566 53.388 33.8516C53.2377 33.6419 53.0622 33.4847 52.8617 33.3799C52.6657 33.2751 52.4538 33.2227 52.2259 33.2227C51.9753 33.2227 51.7497 33.2796 51.5492 33.3936C51.3532 33.5029 51.1869 33.6556 51.0502 33.8516C50.918 34.043 50.8155 34.2686 50.7425 34.5283C50.6742 34.7835 50.64 35.057 50.64 35.3486C50.64 35.6221 50.6719 35.8864 50.7357 36.1416C50.8041 36.3923 50.9043 36.6156 51.0365 36.8115C51.1686 37.0075 51.335 37.1624 51.5355 37.2764C51.736 37.3903 51.9707 37.4473 52.2396 37.4473C52.4948 37.4473 52.7295 37.3994 52.9437 37.3037C53.1579 37.2035 53.3448 37.069 53.5043 36.9004C53.6638 36.7318 53.7891 36.5426 53.8802 36.333C53.9714 36.1234 54.0215 35.9092 54.0306 35.6904L54.6595 35.8818C54.6595 36.2282 54.5866 36.57 54.4408 36.9072C54.2995 37.2399 54.1013 37.5452 53.8461 37.8232C53.5954 38.0967 53.3015 38.3154 52.9642 38.4795C52.6315 38.6436 52.2692 38.7256 51.8773 38.7256C51.4033 38.7256 50.9841 38.6367 50.6195 38.459C50.2595 38.2767 49.9587 38.0306 49.7171 37.7207C49.4802 37.4108 49.3024 37.0553 49.1839 36.6543C49.0655 36.2533 49.0062 35.8317 49.0062 35.3896C49.0062 34.9111 49.0791 34.4622 49.225 34.043C49.3708 33.6237 49.5827 33.2546 49.8607 32.9355C50.1387 32.612 50.4759 32.3613 50.8724 32.1836C51.2735 32.0013 51.7269 31.9102 52.2328 31.9102C52.7705 31.9102 53.2422 32.015 53.6478 32.2246C54.0534 32.4342 54.3952 32.7236 54.6732 33.0928C54.9512 33.4619 55.1608 33.8903 55.3021 34.3779C55.4434 34.8656 55.514 35.3896 55.514 35.9502V36.5312C55.514 37.1191 55.4616 37.6865 55.3568 38.2334C55.252 38.7757 55.0811 39.2793 54.8441 39.7441C54.6117 40.2044 54.3041 40.61 53.9213 40.9609C53.543 41.3073 53.0782 41.5785 52.5267 41.7744C51.9798 41.9658 51.3373 42.0615 50.599 42.0615H50.4486V40.7012ZM57.4724 41.1797C57.4724 40.9245 57.559 40.7103 57.7321 40.5371C57.9053 40.3594 58.14 40.2705 58.4363 40.2705C58.737 40.2705 58.9717 40.3594 59.1404 40.5371C59.3135 40.7103 59.4001 40.9245 59.4001 41.1797C59.4001 41.4349 59.3135 41.6491 59.1404 41.8223C58.9717 41.9954 58.737 42.082 58.4363 42.082C58.14 42.082 57.9053 41.9954 57.7321 41.8223C57.559 41.6491 57.4724 41.4349 57.4724 41.1797ZM57.4792 35.3555C57.4792 35.1003 57.5658 34.8861 57.739 34.7129C57.9122 34.5352 58.1469 34.4463 58.4431 34.4463C58.7439 34.4463 58.9786 34.5352 59.1472 34.7129C59.3204 34.8861 59.407 35.1003 59.407 35.3555C59.407 35.6107 59.3204 35.8249 59.1472 35.998C58.9786 36.1712 58.7439 36.2578 58.4431 36.2578C58.1469 36.2578 57.9122 36.1712 57.739 35.998C57.5658 35.8249 57.4792 35.6107 57.4792 35.3555ZM63.1221 36.2783H64.1065C64.4893 36.2783 64.8061 36.2122 65.0567 36.0801C65.3119 35.9479 65.5011 35.7656 65.6241 35.5332C65.7471 35.3008 65.8087 35.0342 65.8087 34.7334C65.8087 34.4189 65.7517 34.1501 65.6378 33.9268C65.5284 33.6989 65.3598 33.5234 65.1319 33.4004C64.9086 33.2773 64.6238 33.2158 64.2774 33.2158C63.9858 33.2158 63.7214 33.2751 63.4845 33.3936C63.252 33.5075 63.0675 33.6715 62.9307 33.8857C62.794 34.0954 62.7257 34.346 62.7257 34.6377H61.0714C61.0714 34.109 61.2104 33.6396 61.4884 33.2295C61.7664 32.8193 62.1446 32.498 62.6231 32.2656C63.1062 32.0286 63.6485 31.9102 64.2501 31.9102C64.8927 31.9102 65.4532 32.0173 65.9317 32.2314C66.4148 32.4411 66.7908 32.7555 67.0596 33.1748C67.3285 33.5941 67.463 34.1136 67.463 34.7334C67.463 35.016 67.3969 35.3031 67.2647 35.5947C67.1326 35.8864 66.9366 36.153 66.6768 36.3945C66.4171 36.6315 66.0935 36.8252 65.7061 36.9756C65.3188 37.1214 64.8699 37.1943 64.3595 37.1943H63.1221V36.2783ZM63.1221 37.5635V36.6611H64.3595C64.9428 36.6611 65.4395 36.7295 65.8497 36.8662C66.2644 37.0029 66.6016 37.1921 66.8614 37.4336C67.1212 37.6706 67.3103 37.9417 67.4288 38.2471C67.5518 38.5524 67.6134 38.876 67.6134 39.2178C67.6134 39.6826 67.529 40.0973 67.3604 40.4619C67.1964 40.8219 66.9617 41.1273 66.6563 41.3779C66.351 41.6286 65.9932 41.8177 65.5831 41.9453C65.1775 42.0729 64.7354 42.1367 64.2569 42.1367C63.8285 42.1367 63.4184 42.0775 63.0264 41.959C62.6345 41.8405 62.2836 41.665 61.9737 41.4326C61.6638 41.1956 61.4177 40.9017 61.2354 40.5508C61.0577 40.1953 60.9688 39.7852 60.9688 39.3203H62.6163C62.6163 39.6165 62.6846 39.8786 62.8214 40.1064C62.9626 40.3298 63.1586 40.5052 63.4093 40.6328C63.6645 40.7604 63.9561 40.8242 64.2843 40.8242C64.6306 40.8242 64.9291 40.7627 65.1798 40.6396C65.4304 40.5166 65.6218 40.3343 65.754 40.0928C65.8907 39.8512 65.9591 39.5596 65.9591 39.2178C65.9591 38.8304 65.8839 38.516 65.7335 38.2744C65.5831 38.0329 65.3689 37.8551 65.0909 37.7412C64.8129 37.6227 64.4848 37.5635 64.1065 37.5635H63.1221ZM75.9086 36.1895V37.8164C75.9086 38.5957 75.8312 39.2611 75.6762 39.8125C75.5258 40.3594 75.3071 40.8037 75.02 41.1455C74.7329 41.4873 74.3888 41.738 73.9877 41.8975C73.5912 42.057 73.1469 42.1367 72.6547 42.1367C72.2628 42.1367 71.8982 42.0866 71.561 41.9863C71.2283 41.8861 70.9275 41.7288 70.6586 41.5146C70.3898 41.3005 70.1596 41.0247 69.9682 40.6875C69.7814 40.3457 69.6355 39.9378 69.5307 39.4639C69.4304 38.9899 69.3803 38.4408 69.3803 37.8164V36.1895C69.3803 35.4056 69.4578 34.7448 69.6127 34.207C69.7677 33.6647 69.9887 33.2249 70.2758 32.8877C70.5629 32.5459 70.9047 32.2975 71.3012 32.1426C71.7023 31.9876 72.1489 31.9102 72.6411 31.9102C73.0375 31.9102 73.4021 31.9603 73.7348 32.0605C74.072 32.1562 74.3728 32.3089 74.6371 32.5186C74.906 32.7282 75.1339 33.0016 75.3207 33.3389C75.5121 33.6715 75.658 34.0749 75.7582 34.5488C75.8585 35.0182 75.9086 35.5651 75.9086 36.1895ZM74.2612 38.0488V35.9434C74.2612 35.5469 74.2384 35.1982 74.1928 34.8975C74.1472 34.5921 74.0789 34.3346 73.9877 34.125C73.9011 33.9108 73.7918 33.7376 73.6596 33.6055C73.5274 33.4688 73.3771 33.3708 73.2084 33.3115C73.0398 33.2477 72.8507 33.2158 72.6411 33.2158C72.3858 33.2158 72.158 33.266 71.9575 33.3662C71.7569 33.4619 71.5883 33.6169 71.4516 33.8311C71.3149 34.0452 71.2101 34.3278 71.1371 34.6787C71.0688 35.0251 71.0346 35.4466 71.0346 35.9434V38.0488C71.0346 38.4499 71.0574 38.8031 71.103 39.1084C71.1485 39.4137 71.2169 39.6758 71.308 39.8945C71.3992 40.1087 71.5086 40.2865 71.6362 40.4277C71.7683 40.5645 71.9187 40.6647 72.0873 40.7285C72.2605 40.7923 72.4496 40.8242 72.6547 40.8242C72.9145 40.8242 73.1446 40.7741 73.3452 40.6738C73.5457 40.5736 73.7143 40.4141 73.851 40.1953C73.9877 39.972 74.0903 39.6826 74.1586 39.3271C74.227 38.9717 74.2612 38.5456 74.2612 38.0488Z" fill="white"/>
<rect x="119.5" y="22" width="128" height="30" rx="15" fill="black"/>
<path opacity="0.1" d="M298.5 29.9167C295.1 29.9167 292.125 31.4042 290 33.7417L298.5 44.0834L307 33.7417C304.875 31.4042 301.9 29.9167 298.5 29.9167Z" fill="white"/>
<path d="M321.583 29.9167L307.417 44.0834H321.583V29.9167V29.9167Z" fill="white"/>
<path opacity="0.3" d="M333.5 29.5H330.5V31H329C328.448 31 328 31.5037 328 32.125V43.375C328 43.9963 328.448 44.5 329 44.5H335C335.552 44.5 336 43.9963 336 43.375V32.125C336 31.5037 335.552 31 335 31H333.5V29.5Z" fill="white"/>
<path d="M328 37.5C328 38.0833 328 42.8667 328 43.45C328 44.0299 328.448 44.5 329 44.5H335C335.552 44.5 336 44.0299 336 43.45C336 42.8667 336 38.0833 336 37.5H328Z" fill="white"/>
<rect x="121.5" y="778" width="133" height="4" rx="2" fill="white"/>
</g>
<defs>
<clipPath id="clip0_143_49">
<rect x="8" y="8" width="360" height="782" rx="50" fill="white"/>
</clipPath>
</defs>
</svg>
