<svg width="1924" height="260" viewBox="0 0 1924 260" fill="none" xmlns="http://www.w3.org/2000/svg">
<g filter="url(#filter0_d_289_5)">
<rect x="5" y="5" width="1914" height="250" rx="61" stroke="#FFBAF7" stroke-width="6" shape-rendering="crispEdges"/>
<g filter="url(#filter1_d_289_5)">
<path d="M936.543 114.144C939.786 114.144 943.2 114.527 946.784 115.295C950.368 116.063 954.123 117.301 958.048 119.007L953.824 131.552C950.24 129.846 946.997 128.651 944.096 127.968C941.195 127.286 938.634 126.944 936.415 126.944C930.357 126.944 927.328 128.992 927.328 133.087C927.328 134.709 927.84 135.99 928.864 136.928C929.973 137.867 931.979 138.72 934.88 139.488L942.176 141.408C948.405 143.029 952.928 145.504 955.744 148.832C958.645 152.159 960.096 156.341 960.096 161.375C960.096 167.349 958.048 172.214 953.952 175.968C949.941 179.723 943.584 181.6 934.88 181.6C927.456 181.6 919.647 179.893 911.455 176.48L915.424 164.32C919.435 165.941 923.062 167.093 926.304 167.776C929.547 168.459 932.448 168.8 935.008 168.8C938.165 168.8 940.768 168.288 942.816 167.264C944.864 166.155 945.888 164.533 945.888 162.4C945.888 160.523 945.206 159.071 943.84 158.047C942.56 156.938 940.213 155.957 936.8 155.104L929.504 153.184C923.872 151.733 919.69 149.302 916.959 145.888C914.314 142.475 912.992 138.421 912.992 133.728C912.992 128.181 914.912 123.53 918.751 119.776C922.591 116.021 928.522 114.144 936.543 114.144Z" fill="#FFBAF7"/>
<path fill-rule="evenodd" clip-rule="evenodd" d="M1044.26 180.32H1030.3V171.488C1026.38 175.413 1022.96 178.102 1020.06 179.552C1017.25 180.918 1014.3 181.6 1011.23 181.6C1004.23 181.6 998.772 178.954 994.847 173.664C991.007 168.373 989.087 160.949 989.087 151.392V144.48C989.087 135.179 991.433 127.797 996.126 122.335C1000.82 116.874 1007.6 114.144 1016.48 114.144C1018.7 114.144 1020.87 114.357 1023.01 114.784C1025.23 115.21 1027.4 115.808 1029.53 116.576V85.6001H1044.26V180.32ZM1018.02 127.328C1013.07 127.328 1009.52 128.864 1007.39 131.936C1005.26 135.008 1004.19 139.189 1004.19 144.48V151.392C1004.19 157.109 1005.13 161.291 1007.01 163.936C1008.97 166.581 1011.7 167.904 1015.2 167.904C1017.16 167.904 1019.25 167.349 1021.47 166.24C1023.69 165.045 1026.38 162.826 1029.53 159.583V129.888C1025.35 128.182 1021.51 127.328 1018.02 127.328Z" fill="#FFBAF7"/>
<path d="M1069.4 157.152C1069.4 164.32 1072.05 167.904 1077.34 167.904C1079.47 167.904 1081.77 167.392 1084.25 166.368C1086.81 165.344 1089.88 163.381 1093.47 160.48V115.423H1108.18V180.32H1094.23V171.744C1090.31 175.157 1086.64 177.674 1083.23 179.295C1079.81 180.831 1076.36 181.6 1072.86 181.6C1067.05 181.6 1062.57 179.637 1059.42 175.711C1056.26 171.701 1054.68 166.112 1054.68 158.944V115.423H1069.4V157.152Z" fill="#FFBAF7"/>
<path d="M1139.2 114.144C1142.45 114.144 1145.86 114.527 1149.44 115.295C1153.03 116.063 1156.78 117.301 1160.71 119.007L1156.48 131.552C1152.9 129.846 1149.66 128.651 1146.76 127.968C1143.85 127.286 1141.29 126.944 1139.08 126.944C1133.02 126.944 1129.99 128.992 1129.99 133.087C1129.99 134.709 1130.5 135.99 1131.52 136.928C1132.63 137.867 1134.64 138.72 1137.54 139.488L1144.84 141.408C1151.06 143.029 1155.59 145.504 1158.4 148.832C1161.3 152.159 1162.76 156.341 1162.76 161.375C1162.76 167.349 1160.71 172.214 1156.61 175.968C1152.6 179.723 1146.24 181.6 1137.54 181.6C1130.12 181.6 1122.31 179.893 1114.12 176.48L1118.08 164.32C1122.09 165.941 1125.72 167.093 1128.96 167.776C1132.21 168.458 1135.11 168.8 1137.67 168.8C1140.82 168.8 1143.43 168.288 1145.48 167.264C1147.52 166.155 1148.55 164.533 1148.55 162.4C1148.55 160.523 1147.86 159.071 1146.5 158.047C1145.22 156.938 1142.87 155.957 1139.46 155.104L1132.16 153.184C1126.53 151.733 1122.35 149.301 1119.62 145.888C1116.97 142.475 1115.65 138.421 1115.65 133.728C1115.65 128.181 1117.57 123.531 1121.41 119.776C1125.25 116.021 1131.18 114.144 1139.2 114.144Z" fill="#FFBAF7"/>
<path d="M980.967 180.32H966.246V115.423H980.967V180.32Z" fill="#FFBAF7"/>
<path fill-rule="evenodd" clip-rule="evenodd" d="M828.491 104.91C865.67 84.8978 899.807 78.009 906.562 89.7095C912.899 100.688 893.011 124.357 860.862 145.568C869.175 158.758 873.043 168.861 870.028 171.339C866.84 173.957 856.792 167.384 844.576 155.481C805.841 177.211 769.421 185.058 762.418 172.93C755.884 161.611 777.228 136.798 811.147 115.101C801.175 100.095 796.244 88.2731 799.54 85.563C803.027 82.6987 814.726 90.8313 828.491 104.91ZM878.294 96.8657C874.845 90.8935 854.678 95.9367 831.553 108.105C835.384 112.178 839.337 116.666 843.283 121.467C843.705 121.981 844.122 122.497 844.537 123.009C841.866 124.398 839.021 125.985 836.103 127.729C832.225 130.046 828.654 132.381 825.582 134.571C821.146 129.129 817.115 123.767 813.595 118.7C793.423 131.991 780.605 145.718 783.874 151.38C787.687 157.98 811.912 151.128 837.985 136.075C864.058 121.021 882.105 103.466 878.294 96.8657Z" fill="#FFBAF7"/>
<path fill-rule="evenodd" clip-rule="evenodd" d="M1062.4 85.6362C1064.13 85.6362 1065.56 86.056 1066.69 86.896C1067.57 87.5217 1068.21 88.3523 1068.6 89.3872V85.9595H1072.16V102.564C1072.16 105.204 1071.34 106.892 1069.71 108.404C1068.1 109.916 1065.88 110.672 1063.05 110.672C1060.75 110.672 1058.84 110.144 1057.33 109.088C1055.84 108.056 1054.94 106.676 1054.63 104.948H1058.16C1058.4 105.74 1058.92 106.364 1059.74 106.82C1060.58 107.276 1061.7 107.504 1063.09 107.504C1064.89 107.504 1066.23 107.06 1067.12 106.172C1068.01 105.284 1068.45 104.352 1068.45 102.6V99.644C1068.03 100.606 1067.35 101.4 1066.44 102.024C1065.24 102.816 1063.8 103.211 1062.12 103.211C1060.51 103.211 1059.09 102.828 1057.87 102.06C1056.64 101.292 1055.7 100.224 1055.02 98.856C1054.35 97.464 1054.02 96.8436 1054.02 94.9956C1054.02 93.1237 1054.36 91.4799 1055.06 90.064C1055.76 88.648 1056.73 87.5556 1057.98 86.7876C1059.25 86.0197 1060.72 85.6362 1062.4 85.6362ZM1063.2 88.6597C1061.56 88.6597 1060.27 89.2241 1059.31 90.3521C1058.35 91.456 1057.87 92.9917 1057.87 94.9595C1057.87 96.8795 1058.35 97.4037 1059.31 98.5317C1060.29 99.6357 1061.6 100.188 1063.23 100.188C1064.84 100.188 1066.12 99.6235 1067.08 98.4956C1068.07 97.3677 1068.56 96.8199 1068.56 94.8521C1068.56 92.9321 1068.07 91.4199 1067.08 90.3159C1066.12 89.212 1064.83 88.6597 1063.2 88.6597Z" fill="#FFBAF7"/>
<path fill-rule="evenodd" clip-rule="evenodd" d="M1096.94 85.6001C1098.83 85.6001 1100.49 86.0078 1101.91 86.8237C1103.32 87.6157 1104.41 88.7202 1105.18 90.1362C1105.97 91.5522 1106.37 93.196 1106.37 95.0679C1106.37 96.9158 1105.97 97.5717 1105.18 99.0356C1104.41 100.476 1103.32 101.616 1101.91 102.456C1100.49 103.272 1098.83 103.68 1096.94 103.68C1095.07 103.68 1093.42 103.272 1092.01 102.456C1090.59 101.616 1089.49 100.476 1088.69 99.0356C1087.9 97.5717 1087.51 96.9158 1087.51 95.0679C1087.51 93.1961 1087.9 91.5521 1088.69 90.1362C1089.51 88.7202 1090.61 87.6157 1092.01 86.8237C1093.42 86.0078 1095.07 85.6001 1096.94 85.6001ZM1096.94 88.6597C1095.31 88.6597 1093.96 89.2362 1092.91 90.3882C1091.87 91.5401 1091.36 93.088 1091.36 95.0317C1091.36 96.3517 1091.59 96.5038 1092.04 97.4878C1092.52 98.4716 1093.18 99.2395 1094.02 99.7915C1094.89 100.343 1095.86 100.62 1096.94 100.62C1098.07 100.62 1099.04 100.344 1099.85 99.7915C1100.69 99.2395 1101.35 98.4718 1101.83 97.4878C1102.31 96.5038 1102.55 96.3517 1102.55 95.0317C1102.55 93.0639 1102.03 91.5161 1100.97 90.3882C1099.94 89.2362 1098.59 88.6597 1096.94 88.6597Z" fill="#FFBAF7"/>
<path fill-rule="evenodd" clip-rule="evenodd" d="M1142.23 85.6001C1144.63 85.6001 1146.43 86.1638 1147.63 87.2915C1148.83 88.3955 1149.43 90.028 1149.43 92.188V99.7915C1149.43 100.344 1149.46 100.908 1149.54 101.484C1149.61 102.06 1149.72 102.672 1149.86 103.32H1146.23C1146.11 102.864 1146.02 102.36 1145.97 101.808C1145.96 101.407 1145.95 100.942 1145.94 100.414C1145.49 101.355 1144.81 102.108 1143.92 102.671C1142.82 103.343 1141.47 103.68 1139.89 103.68C1138.02 103.68 1136.53 103.224 1135.43 102.312C1134.32 101.376 1133.77 100.116 1133.77 98.5317C1133.77 96.8999 1134.34 95.6161 1135.5 94.6802C1136.67 93.7202 1138.24 93.4058 1140.42 93.0698L1145.76 92.5819V92.0435C1145.76 90.8676 1145.46 89.9915 1144.86 89.4155C1144.28 88.8156 1143.36 88.5161 1142.08 88.5161C1140.86 88.5162 1139.88 88.756 1139.13 89.2358C1138.41 89.7158 1137.99 90.3997 1137.87 91.2876H1134.31C1134.48 89.5597 1135.26 88.1799 1136.65 87.1479C1138.04 86.1159 1139.9 85.6001 1142.23 85.6001ZM1141.11 95.2554C1139.89 95.4474 1138.97 95.7721 1138.34 96.228C1137.74 96.684 1137.44 97.3437 1137.44 98.2075C1137.44 99.0475 1137.72 99.6837 1138.27 100.116C1138.84 100.524 1139.67 100.728 1140.75 100.728C1142.19 100.728 1143.38 100.38 1144.32 99.6841C1145.28 98.9882 1145.76 98.112 1145.76 97.0562V94.522L1141.11 95.2554Z" fill="#FFBAF7"/>
<path fill-rule="evenodd" clip-rule="evenodd" d="M1115.22 89.0405C1115.67 88.1252 1116.33 87.374 1117.2 86.7876C1118.4 85.9957 1119.84 85.6001 1121.52 85.6001C1123.18 85.6002 1124.6 85.9958 1125.8 86.7876C1127.03 87.5796 1127.96 88.6841 1128.61 90.1001C1129.28 91.516 1129.62 93.172 1129.62 95.0679C1129.62 96.9878 1129.27 97.6679 1128.58 99.1079C1127.88 100.548 1126.91 101.664 1125.66 102.456C1124.41 103.247 1122.95 103.644 1121.27 103.644C1119.54 103.644 1118.1 103.235 1116.95 102.419C1116.09 101.797 1115.46 100.996 1115.04 100.017V103.32H1111.48V78.3999H1115.22V89.0405ZM1120.44 88.7319C1118.81 88.7319 1117.5 89.3075 1116.52 90.4595C1115.56 91.5875 1115.08 92.1603 1115.08 94.1763C1115.08 96.144 1115.56 97.7041 1116.52 98.856C1117.5 99.9838 1118.82 100.547 1120.48 100.547C1122.11 100.547 1123.4 99.9718 1124.36 98.8198C1125.32 97.6678 1125.8 97.0838 1125.8 95.0679C1125.8 93.0759 1125.32 91.5273 1124.36 90.4233C1123.4 89.2955 1122.1 88.732 1120.44 88.7319Z" fill="#FFBAF7"/>
<path d="M1082.43 103.32H1078.69V78.3999H1082.43V103.32Z" fill="#FFBAF7"/>
<path d="M1159.51 103.32H1155.76V78.3999H1159.51V103.32Z" fill="#FFBAF7"/>
<path d="M981.351 103.136H965.863V87.9038H981.351V103.136Z" fill="#FFBAF7"/>
</g>
</g>
<defs>
<filter id="filter0_d_289_5" x="0" y="0" width="1924" height="260" filterUnits="userSpaceOnUse" color-interpolation-filters="sRGB">
<feFlood flood-opacity="0" result="BackgroundImageFix"/>
<feColorMatrix in="SourceAlpha" type="matrix" values="0 0 0 0 0 0 0 0 0 0 0 0 0 0 0 0 0 0 127 0" result="hardAlpha"/>
<feOffset/>
<feGaussianBlur stdDeviation="1"/>
<feComposite in2="hardAlpha" operator="out"/>
<feColorMatrix type="matrix" values="0 0 0 0 0 0 0 0 0 0 0 0 0 0 0 0 0 0 0.25 0"/>
<feBlend mode="normal" in2="BackgroundImageFix" result="effect1_dropShadow_289_5"/>
<feBlend mode="normal" in="SourceGraphic" in2="effect1_dropShadow_289_5" result="shape"/>
</filter>
<filter id="filter1_d_289_5" x="746" y="63" width="432" height="136" filterUnits="userSpaceOnUse" color-interpolation-filters="sRGB">
<feFlood flood-opacity="0" result="BackgroundImageFix"/>
<feColorMatrix in="SourceAlpha" type="matrix" values="0 0 0 0 0 0 0 0 0 0 0 0 0 0 0 0 0 0 127 0" result="hardAlpha"/>
<feOffset dy="1"/>
<feGaussianBlur stdDeviation="2"/>
<feComposite in2="hardAlpha" operator="out"/>
<feColorMatrix type="matrix" values="0 0 0 0 0 0 0 0 0 0 0 0 0 0 0 0 0 0 0.25 0"/>
<feBlend mode="normal" in2="BackgroundImageFix" result="effect1_dropShadow_289_5"/>
<feBlend mode="normal" in="SourceGraphic" in2="effect1_dropShadow_289_5" result="shape"/>
</filter>
</defs>
</svg>
