<svg width="1220" height="848" viewBox="0 0 1220 848" fill="none" xmlns="http://www.w3.org/2000/svg">
<rect x="7" y="326" width="222" height="120" rx="19" stroke="#FFBAF7" stroke-opacity="0.75" stroke-width="2"/>
<path d="M101.873 403.24C99.5372 403.24 97.7692 402.576 96.5692 401.248C95.3692 399.92 94.7692 398.016 94.7692 395.536V385.72H97.8892V395.992C97.8892 397.576 98.2412 398.76 98.9452 399.544C99.6492 400.312 100.633 400.696 101.897 400.696C103.161 400.696 104.145 400.312 104.849 399.544C105.553 398.76 105.905 397.584 105.905 396.016V385.72H109.025V395.56C109.025 398.024 108.417 399.92 107.201 401.248C106.001 402.576 104.225 403.24 101.873 403.24ZM116.495 403.24C114.799 403.24 113.447 402.888 112.439 402.184C111.431 401.464 110.879 400.472 110.783 399.208H113.543C113.623 399.832 113.919 400.304 114.431 400.624C114.943 400.944 115.631 401.104 116.495 401.104C117.279 401.104 117.863 400.984 118.247 400.744C118.647 400.488 118.847 400.128 118.847 399.664C118.847 399.328 118.735 399.056 118.511 398.848C118.287 398.624 117.863 398.44 117.239 398.296L115.271 397.84C113.927 397.552 112.927 397.104 112.271 396.496C111.631 395.872 111.311 395.096 111.311 394.168C111.311 393.032 111.743 392.144 112.607 391.504C113.487 390.848 114.695 390.52 116.231 390.52C117.751 390.52 118.967 390.848 119.879 391.504C120.807 392.144 121.319 393.032 121.415 394.168H118.655C118.575 393.672 118.319 393.296 117.887 393.04C117.471 392.784 116.895 392.656 116.159 392.656C115.471 392.656 114.951 392.768 114.599 392.992C114.247 393.2 114.071 393.512 114.071 393.928C114.071 394.248 114.207 394.52 114.479 394.744C114.751 394.952 115.207 395.136 115.847 395.296L117.959 395.776C119.159 396.048 120.063 396.52 120.671 397.192C121.295 397.864 121.607 398.656 121.607 399.568C121.607 400.736 121.159 401.64 120.263 402.28C119.367 402.92 118.111 403.24 116.495 403.24ZM129.592 403.24C128.296 403.24 127.16 402.968 126.184 402.424C125.224 401.88 124.472 401.128 123.928 400.168C123.4 399.208 123.136 398.104 123.136 396.856C123.136 395.608 123.4 394.512 123.928 393.568C124.472 392.608 125.224 391.864 126.184 391.336C127.144 390.792 128.264 390.52 129.544 390.52C130.76 390.52 131.816 390.776 132.712 391.288C133.608 391.784 134.304 392.488 134.8 393.4C135.296 394.312 135.544 395.376 135.544 396.592C135.544 396.816 135.536 397.024 135.52 397.216C135.504 397.408 135.48 397.6 135.448 397.792H125.008V395.68H133.12L132.496 396.256C132.496 395.104 132.232 394.24 131.704 393.664C131.176 393.088 130.44 392.8 129.496 392.8C128.472 392.8 127.656 393.152 127.048 393.856C126.456 394.56 126.16 395.576 126.16 396.904C126.16 398.216 126.456 399.224 127.048 399.928C127.656 400.616 128.512 400.96 129.616 400.96C130.256 400.96 130.816 400.84 131.296 400.6C131.776 400.36 132.128 399.992 132.352 399.496H135.208C134.808 400.648 134.128 401.56 133.168 402.232C132.224 402.904 131.032 403.24 129.592 403.24ZM137.807 403V390.76H140.759V393.712H140.831V403H137.807ZM140.831 396.616L140.519 393.712C140.807 392.672 141.295 391.88 141.983 391.336C142.671 390.792 143.495 390.52 144.455 390.52C144.791 390.52 145.031 390.552 145.175 390.616V393.472C145.095 393.44 144.983 393.424 144.839 393.424C144.695 393.408 144.519 393.4 144.311 393.4C143.143 393.4 142.271 393.656 141.695 394.168C141.119 394.68 140.831 395.496 140.831 396.616Z" fill="white"/>
<circle cx="118" cy="307" r="55" fill="#FD78DA"/>
<mask id="mask0_292_139" style="mask-type:alpha" maskUnits="userSpaceOnUse" x="83" y="269" width="69" height="69">
<rect x="83" y="269" width="69" height="69" fill="#D9D9D9"/>
</mask>
<g mask="url(#mask0_292_139)">
<path d="M117.5 309.063C120.366 309.063 123.209 309.421 126.033 310.138C128.878 310.861 131.877 311.902 135.03 313.266C136.317 313.848 137.336 314.687 138.112 315.791C138.853 316.844 139.25 318.14 139.25 319.744V325.523C130.63 327.669 123.908 328.776 117.282 328.801C110.665 328.827 104.084 327.773 95.7501 325.54V319.744C95.7502 318.14 96.1473 316.844 96.8878 315.791C97.6232 314.746 98.5516 313.943 99.6866 313.37L99.9161 313.258C103.062 311.851 106.063 310.802 108.92 310.105C111.772 309.409 114.631 309.063 117.5 309.063ZM117.5 283.116C120.371 283.116 122.628 284.017 124.379 285.768C126.13 287.519 127.031 289.775 127.031 292.647C127.031 295.518 126.13 297.775 124.379 299.526C122.628 301.277 120.371 302.178 117.5 302.178C114.629 302.178 112.372 301.277 110.621 299.526C108.87 297.775 107.969 295.518 107.969 292.647C107.969 289.775 108.87 287.519 110.621 285.768C112.372 284.017 114.629 283.116 117.5 283.116Z" stroke="white" stroke-width="2.5"/>
</g>
<rect x="303" y="243" width="254" height="286" rx="19" stroke="#FFBAF7" stroke-opacity="0.75" stroke-width="2"/>
<path d="M366.511 394V376.72H371.359L376.639 393.376H374.935L380.215 376.72H385.087V394H382.015V377.752H382.519L377.383 394H374.047L368.959 377.896H369.439V394H366.511ZM393.762 394.24C392.466 394.24 391.322 393.968 390.33 393.424C389.354 392.88 388.594 392.128 388.05 391.168C387.506 390.192 387.234 389.08 387.234 387.832C387.234 386.584 387.506 385.488 388.05 384.544C388.594 383.6 389.354 382.864 390.33 382.336C391.322 381.792 392.466 381.52 393.762 381.52C395.074 381.52 396.218 381.792 397.194 382.336C398.17 382.864 398.93 383.6 399.474 384.544C400.018 385.488 400.29 386.584 400.29 387.832C400.29 389.08 400.01 390.192 399.45 391.168C398.906 392.128 398.146 392.88 397.17 393.424C396.194 393.968 395.058 394.24 393.762 394.24ZM393.762 391.816C394.402 391.816 394.978 391.656 395.49 391.336C396.002 391 396.402 390.536 396.69 389.944C396.978 389.336 397.122 388.624 397.122 387.808C397.122 386.608 396.802 385.664 396.162 384.976C395.538 384.288 394.738 383.944 393.762 383.944C392.786 383.944 391.978 384.288 391.338 384.976C390.698 385.664 390.378 386.608 390.378 387.808C390.378 388.624 390.522 389.336 390.81 389.944C391.114 390.536 391.514 391 392.01 391.336C392.522 391.656 393.106 391.816 393.762 391.816ZM409.498 394.24C408.33 394.24 407.37 393.968 406.618 393.424C405.882 392.864 405.426 392.096 405.25 391.12L405.466 391.096V394H402.514V376.72H405.538V384.52L405.322 384.472C405.53 383.56 406.018 382.84 406.786 382.312C407.57 381.784 408.538 381.52 409.69 381.52C410.778 381.52 411.722 381.784 412.522 382.312C413.338 382.824 413.97 383.552 414.418 384.496C414.866 385.44 415.09 386.552 415.09 387.832C415.09 389.128 414.858 390.256 414.394 391.216C413.93 392.176 413.282 392.92 412.45 393.448C411.618 393.976 410.634 394.24 409.498 394.24ZM408.73 391.744C409.706 391.744 410.482 391.408 411.058 390.736C411.634 390.048 411.922 389.088 411.922 387.856C411.922 386.624 411.626 385.672 411.034 385C410.458 384.328 409.682 383.992 408.706 383.992C407.746 383.992 406.97 384.336 406.378 385.024C405.786 385.696 405.49 386.648 405.49 387.88C405.49 389.112 405.786 390.064 406.378 390.736C406.97 391.408 407.754 391.744 408.73 391.744ZM417.35 394V381.76H420.374V394H417.35ZM417.206 379.744V376.408H420.494V379.744H417.206ZM423.585 394V376.72H426.609V394H423.585ZM435.315 394.24C434.019 394.24 432.883 393.968 431.907 393.424C430.947 392.88 430.195 392.128 429.651 391.168C429.123 390.208 428.859 389.104 428.859 387.856C428.859 386.608 429.123 385.512 429.651 384.568C430.195 383.608 430.947 382.864 431.907 382.336C432.867 381.792 433.987 381.52 435.267 381.52C436.483 381.52 437.539 381.776 438.435 382.288C439.331 382.784 440.027 383.488 440.523 384.4C441.019 385.312 441.267 386.376 441.267 387.592C441.267 387.816 441.259 388.024 441.243 388.216C441.227 388.408 441.203 388.6 441.171 388.792H430.731V386.68H438.843L438.219 387.256C438.219 386.104 437.955 385.24 437.427 384.664C436.899 384.088 436.163 383.8 435.219 383.8C434.195 383.8 433.379 384.152 432.771 384.856C432.179 385.56 431.883 386.576 431.883 387.904C431.883 389.216 432.179 390.224 432.771 390.928C433.379 391.616 434.235 391.96 435.339 391.96C435.979 391.96 436.539 391.84 437.019 391.6C437.499 391.36 437.851 390.992 438.075 390.496H440.931C440.531 391.648 439.851 392.56 438.891 393.232C437.947 393.904 436.755 394.24 435.315 394.24ZM447.235 394L453.595 376.72H456.283L450.307 394H447.235ZM460.267 394L454.315 376.72H457.147L463.483 394H460.267ZM450.523 387.208H459.979V389.704H450.523V387.208ZM472.756 394.24C471.588 394.24 470.636 393.968 469.9 393.424C469.18 392.864 468.732 392.096 468.556 391.12L468.796 391.096V398.92H465.772V381.76H468.724V384.52L468.484 384.472C468.708 383.56 469.22 382.84 470.02 382.312C470.82 381.784 471.796 381.52 472.948 381.52C474.036 381.52 474.98 381.784 475.78 382.312C476.596 382.824 477.228 383.552 477.676 384.496C478.124 385.44 478.348 386.552 478.348 387.832C478.348 389.128 478.116 390.256 477.652 391.216C477.188 392.176 476.54 392.92 475.708 393.448C474.876 393.976 473.892 394.24 472.756 394.24ZM471.988 391.744C472.964 391.744 473.74 391.408 474.316 390.736C474.892 390.048 475.18 389.088 475.18 387.856C475.18 386.624 474.884 385.672 474.292 385C473.716 384.328 472.94 383.992 471.964 383.992C471.004 383.992 470.228 384.336 469.636 385.024C469.044 385.696 468.748 386.648 468.748 387.88C468.748 389.112 469.044 390.064 469.636 390.736C470.228 391.408 471.012 391.744 471.988 391.744ZM487.662 394.24C486.494 394.24 485.542 393.968 484.806 393.424C484.086 392.864 483.638 392.096 483.462 391.12L483.702 391.096V398.92H480.678V381.76H483.63V384.52L483.39 384.472C483.614 383.56 484.126 382.84 484.926 382.312C485.726 381.784 486.702 381.52 487.854 381.52C488.942 381.52 489.886 381.784 490.686 382.312C491.502 382.824 492.134 383.552 492.582 384.496C493.03 385.44 493.254 386.552 493.254 387.832C493.254 389.128 493.022 390.256 492.558 391.216C492.094 392.176 491.446 392.92 490.614 393.448C489.782 393.976 488.798 394.24 487.662 394.24ZM486.894 391.744C487.87 391.744 488.646 391.408 489.222 390.736C489.798 390.048 490.086 389.088 490.086 387.856C490.086 386.624 489.79 385.672 489.198 385C488.622 384.328 487.846 383.992 486.87 383.992C485.91 383.992 485.134 384.336 484.542 385.024C483.95 385.696 483.654 386.648 483.654 387.88C483.654 389.112 483.95 390.064 484.542 390.736C485.134 391.408 485.918 391.744 486.894 391.744Z" fill="white"/>
<rect x="332" y="210" width="195" height="64" rx="20" fill="#FD78DA"/>
<path d="M376.069 251V233.72H378.613V251H376.069ZM377.317 243.824V241.736H386.821V243.824H377.317ZM377.317 235.808V233.72H387.469V235.808H377.317ZM390.389 251V238.76H392.765V241.808H392.885V251H390.389ZM392.885 244.616L392.573 241.712C392.861 240.672 393.357 239.88 394.061 239.336C394.765 238.792 395.605 238.52 396.581 238.52C396.949 238.52 397.205 238.552 397.349 238.616V240.968C397.269 240.936 397.157 240.92 397.013 240.92C396.869 240.904 396.693 240.896 396.485 240.896C395.285 240.896 394.381 241.208 393.773 241.832C393.181 242.456 392.885 243.384 392.885 244.616ZM404.834 251.24C403.586 251.24 402.49 250.968 401.546 250.424C400.602 249.864 399.866 249.104 399.338 248.144C398.81 247.168 398.546 246.064 398.546 244.832C398.546 243.584 398.81 242.488 399.338 241.544C399.882 240.6 400.618 239.864 401.546 239.336C402.49 238.792 403.586 238.52 404.834 238.52C406.098 238.52 407.202 238.792 408.146 239.336C409.09 239.864 409.818 240.6 410.33 241.544C410.858 242.488 411.122 243.584 411.122 244.832C411.122 246.064 410.858 247.168 410.33 248.144C409.818 249.104 409.09 249.864 408.146 250.424C407.202 250.968 406.098 251.24 404.834 251.24ZM404.834 249.2C405.586 249.2 406.234 249.016 406.778 248.648C407.338 248.28 407.778 247.768 408.098 247.112C408.418 246.456 408.578 245.688 408.578 244.808C408.578 243.496 408.226 242.464 407.522 241.712C406.834 240.944 405.938 240.56 404.834 240.56C403.746 240.56 402.85 240.944 402.146 241.712C401.458 242.48 401.114 243.512 401.114 244.808C401.114 245.688 401.266 246.456 401.57 247.112C401.89 247.768 402.33 248.28 402.89 248.648C403.466 249.016 404.114 249.2 404.834 249.2ZM413.686 251V238.76H416.062V241.64H416.182V251H413.686ZM422.374 251V243.128C422.374 242.28 422.158 241.648 421.726 241.232C421.31 240.816 420.686 240.608 419.854 240.608C419.134 240.608 418.494 240.768 417.934 241.088C417.39 241.408 416.958 241.848 416.638 242.408C416.334 242.968 416.182 243.632 416.182 244.4L415.87 241.472C416.27 240.56 416.886 239.84 417.718 239.312C418.55 238.784 419.518 238.52 420.622 238.52C421.934 238.52 422.966 238.888 423.718 239.624C424.47 240.36 424.846 241.336 424.846 242.552V251H422.374ZM433.05 251.24C431.626 251.24 430.578 250.912 429.906 250.256C429.25 249.584 428.922 248.6 428.922 247.304V235.952L431.394 235.016V247.328C431.394 247.968 431.562 248.44 431.898 248.744C432.234 249.048 432.778 249.2 433.53 249.2C433.818 249.2 434.074 249.176 434.298 249.128C434.522 249.08 434.714 249.024 434.874 248.96V250.976C434.698 251.056 434.45 251.12 434.13 251.168C433.81 251.216 433.45 251.24 433.05 251.24ZM426.474 240.752V238.76H434.874V240.752H426.474ZM441.999 251V233.72H444.543V251H441.999ZM443.247 251V248.912H453.999V251H443.247ZM443.247 243.104V241.016H453.135V243.104H443.247ZM443.247 235.808V233.72H453.783V235.808H443.247ZM457.186 251V238.76H459.562V241.64H459.682V251H457.186ZM465.874 251V243.128C465.874 242.28 465.658 241.648 465.226 241.232C464.81 240.816 464.186 240.608 463.354 240.608C462.634 240.608 461.994 240.768 461.434 241.088C460.89 241.408 460.458 241.848 460.138 242.408C459.834 242.968 459.682 243.632 459.682 244.4L459.37 241.472C459.77 240.56 460.386 239.84 461.218 239.312C462.05 238.784 463.018 238.52 464.122 238.52C465.434 238.52 466.466 238.888 467.218 239.624C467.97 240.36 468.346 241.336 468.346 242.552V251H465.874ZM480.572 251V248.192L480.812 248.264C480.556 249.176 480.028 249.904 479.228 250.448C478.428 250.976 477.468 251.24 476.348 251.24C475.244 251.24 474.276 250.976 473.444 250.448C472.628 249.92 471.988 249.184 471.524 248.24C471.076 247.296 470.852 246.192 470.852 244.928C470.852 243.648 471.084 242.528 471.548 241.568C472.012 240.608 472.66 239.864 473.492 239.336C474.324 238.808 475.3 238.544 476.42 238.544C477.588 238.544 478.548 238.824 479.3 239.384C480.068 239.928 480.572 240.696 480.812 241.688L480.476 241.736V233.72H482.948V251H480.572ZM476.972 249.152C478.076 249.152 478.948 248.776 479.588 248.024C480.228 247.256 480.548 246.2 480.548 244.856C480.548 243.544 480.22 242.512 479.564 241.76C478.924 240.992 478.052 240.608 476.948 240.608C475.86 240.608 474.996 240.992 474.356 241.76C473.732 242.512 473.42 243.568 473.42 244.928C473.42 246.256 473.732 247.296 474.356 248.048C474.996 248.784 475.868 249.152 476.972 249.152Z" fill="white"/>
<rect x="660" y="169" width="195" height="126" rx="10" fill="#FFBAF7" fill-opacity="0.75"/>
<path d="M673.676 226L680.036 208.72H682.724L676.748 226H673.676ZM686.708 226L680.756 208.72H683.588L689.924 226H686.708ZM676.964 219.208H686.42V221.704H676.964V219.208ZM695.306 226.24C694.458 226.24 693.722 226.064 693.098 225.712C692.49 225.344 692.018 224.848 691.682 224.224C691.362 223.6 691.202 222.896 691.202 222.112V213.76H694.226V221.488C694.226 222.24 694.41 222.808 694.778 223.192C695.162 223.576 695.698 223.768 696.386 223.768C697.01 223.768 697.554 223.624 698.018 223.336C698.498 223.048 698.874 222.648 699.146 222.136C699.434 221.608 699.578 221.016 699.578 220.36L699.89 223.288C699.49 224.184 698.89 224.904 698.09 225.448C697.306 225.976 696.378 226.24 695.306 226.24ZM699.674 226V223.12H699.578V213.76H702.626V226H699.674ZM711.139 226.24C709.635 226.24 708.523 225.888 707.803 225.184C707.099 224.464 706.747 223.392 706.747 221.968V210.976L709.795 209.848V222.04C709.795 222.632 709.955 223.072 710.275 223.36C710.595 223.648 711.099 223.792 711.787 223.792C712.059 223.792 712.299 223.776 712.507 223.744C712.731 223.696 712.939 223.64 713.131 223.576V225.928C712.939 226.024 712.667 226.096 712.315 226.144C711.963 226.208 711.571 226.24 711.139 226.24ZM704.395 216.136V213.76H713.131V216.136H704.395ZM715.393 226V208.72H718.417V226H715.393ZM723.985 226V218.272C723.985 217.52 723.793 216.952 723.409 216.568C723.025 216.184 722.465 215.992 721.729 215.992C721.089 215.992 720.513 216.136 720.001 216.424C719.505 216.712 719.113 217.112 718.825 217.624C718.553 218.136 718.417 218.728 718.417 219.4L718.105 216.472C718.521 215.576 719.129 214.864 719.929 214.336C720.729 213.792 721.689 213.52 722.809 213.52C724.137 213.52 725.169 213.896 725.905 214.648C726.657 215.4 727.033 216.4 727.033 217.648V226H723.985ZM735.584 226.24C734.288 226.24 733.152 225.968 732.176 225.424C731.216 224.88 730.464 224.128 729.92 223.168C729.392 222.208 729.128 221.104 729.128 219.856C729.128 218.608 729.392 217.512 729.92 216.568C730.464 215.608 731.216 214.864 732.176 214.336C733.136 213.792 734.256 213.52 735.536 213.52C736.752 213.52 737.808 213.776 738.704 214.288C739.6 214.784 740.296 215.488 740.792 216.4C741.288 217.312 741.536 218.376 741.536 219.592C741.536 219.816 741.528 220.024 741.512 220.216C741.496 220.408 741.472 220.6 741.44 220.792H731V218.68H739.112L738.488 219.256C738.488 218.104 738.224 217.24 737.696 216.664C737.168 216.088 736.432 215.8 735.488 215.8C734.464 215.8 733.648 216.152 733.04 216.856C732.448 217.56 732.152 218.576 732.152 219.904C732.152 221.216 732.448 222.224 733.04 222.928C733.648 223.616 734.504 223.96 735.608 223.96C736.248 223.96 736.808 223.84 737.288 223.6C737.768 223.36 738.12 222.992 738.344 222.496H741.2C740.8 223.648 740.12 224.56 739.16 225.232C738.216 225.904 737.024 226.24 735.584 226.24ZM743.799 226V213.76H746.751V216.64H746.823V226H743.799ZM752.391 226V218.272C752.391 217.52 752.199 216.952 751.815 216.568C751.431 216.184 750.871 215.992 750.135 215.992C749.495 215.992 748.919 216.136 748.407 216.424C747.911 216.712 747.519 217.112 747.231 217.624C746.959 218.136 746.823 218.728 746.823 219.4L746.511 216.472C746.927 215.576 747.535 214.864 748.335 214.336C749.135 213.792 750.095 213.52 751.215 213.52C752.543 213.52 753.575 213.896 754.311 214.648C755.063 215.4 755.439 216.4 755.439 217.648V226H752.391ZM763.545 226.24C762.041 226.24 760.929 225.888 760.209 225.184C759.505 224.464 759.153 223.392 759.153 221.968V210.976L762.201 209.848V222.04C762.201 222.632 762.361 223.072 762.681 223.36C763.001 223.648 763.505 223.792 764.193 223.792C764.465 223.792 764.705 223.776 764.913 223.744C765.137 223.696 765.345 223.64 765.537 223.576V225.928C765.345 226.024 765.073 226.096 764.721 226.144C764.369 226.208 763.977 226.24 763.545 226.24ZM756.801 216.136V213.76H765.537V216.136H756.801ZM767.729 226V213.76H770.753V226H767.729ZM767.585 211.744V208.408H770.873V211.744H767.585ZM779.221 226.24C777.989 226.24 776.901 225.968 775.957 225.424C775.029 224.88 774.293 224.128 773.749 223.168C773.221 222.192 772.957 221.088 772.957 219.856C772.957 218.624 773.221 217.536 773.749 216.592C774.293 215.632 775.029 214.88 775.957 214.336C776.901 213.792 777.989 213.52 779.221 213.52C780.229 213.52 781.141 213.712 781.957 214.096C782.773 214.464 783.445 214.992 783.973 215.68C784.501 216.352 784.837 217.136 784.981 218.032H782.077C781.901 217.376 781.565 216.864 781.069 216.496C780.573 216.128 779.973 215.944 779.269 215.944C778.613 215.944 778.045 216.104 777.565 216.424C777.101 216.744 776.741 217.2 776.485 217.792C776.229 218.384 776.101 219.072 776.101 219.856C776.101 220.656 776.229 221.352 776.485 221.944C776.741 222.536 777.109 223 777.589 223.336C778.069 223.656 778.629 223.816 779.269 223.816C779.973 223.816 780.573 223.632 781.069 223.264C781.565 222.896 781.901 222.384 782.077 221.728H784.981C784.837 222.624 784.493 223.416 783.949 224.104C783.421 224.776 782.749 225.304 781.933 225.688C781.133 226.056 780.229 226.24 779.221 226.24ZM794.627 226C794.547 225.68 794.483 225.328 794.435 224.944C794.403 224.56 794.387 224.096 794.387 223.552H794.291V217.744C794.291 217.104 794.107 216.624 793.739 216.304C793.387 215.968 792.843 215.8 792.107 215.8C791.387 215.8 790.811 215.936 790.379 216.208C789.963 216.464 789.707 216.84 789.611 217.336H786.707C786.835 216.2 787.379 215.28 788.339 214.576C789.299 213.872 790.587 213.52 792.203 213.52C793.883 213.52 795.155 213.904 796.019 214.672C796.883 215.424 797.315 216.536 797.315 218.008V223.552C797.315 223.936 797.339 224.328 797.387 224.728C797.451 225.128 797.539 225.552 797.651 226H794.627ZM790.379 226.24C789.147 226.24 788.163 225.936 787.427 225.328C786.707 224.704 786.347 223.872 786.347 222.832C786.347 221.712 786.755 220.824 787.571 220.168C788.387 219.512 789.539 219.072 791.027 218.848L794.843 218.272V220.192L791.531 220.696C790.811 220.808 790.267 221.008 789.899 221.296C789.547 221.584 789.371 221.984 789.371 222.496C789.371 222.96 789.539 223.32 789.875 223.576C790.211 223.816 790.675 223.936 791.267 223.936C792.131 223.936 792.851 223.72 793.427 223.288C794.003 222.856 794.291 222.328 794.291 221.704L794.627 223.552C794.307 224.432 793.779 225.104 793.043 225.568C792.323 226.016 791.435 226.24 790.379 226.24ZM805.217 226.24C803.713 226.24 802.601 225.888 801.881 225.184C801.177 224.464 800.825 223.392 800.825 221.968V210.976L803.873 209.848V222.04C803.873 222.632 804.033 223.072 804.353 223.36C804.673 223.648 805.177 223.792 805.865 223.792C806.137 223.792 806.377 223.776 806.585 223.744C806.809 223.696 807.017 223.64 807.209 223.576V225.928C807.017 226.024 806.745 226.096 806.393 226.144C806.041 226.208 805.649 226.24 805.217 226.24ZM798.473 216.136V213.76H807.209V216.136H798.473ZM809.401 226V213.76H812.425V226H809.401ZM809.257 211.744V208.408H812.545V211.744H809.257ZM821.156 226.24C819.86 226.24 818.716 225.968 817.724 225.424C816.748 224.88 815.988 224.128 815.444 223.168C814.9 222.192 814.628 221.08 814.628 219.832C814.628 218.584 814.9 217.488 815.444 216.544C815.988 215.6 816.748 214.864 817.724 214.336C818.716 213.792 819.86 213.52 821.156 213.52C822.468 213.52 823.612 213.792 824.588 214.336C825.564 214.864 826.324 215.6 826.868 216.544C827.412 217.488 827.684 218.584 827.684 219.832C827.684 221.08 827.404 222.192 826.844 223.168C826.3 224.128 825.54 224.88 824.564 225.424C823.588 225.968 822.452 226.24 821.156 226.24ZM821.156 223.816C821.796 223.816 822.372 223.656 822.884 223.336C823.396 223 823.796 222.536 824.084 221.944C824.372 221.336 824.516 220.624 824.516 219.808C824.516 218.608 824.196 217.664 823.556 216.976C822.932 216.288 822.132 215.944 821.156 215.944C820.18 215.944 819.372 216.288 818.732 216.976C818.092 217.664 817.772 218.608 817.772 219.808C817.772 220.624 817.916 221.336 818.204 221.944C818.508 222.536 818.908 223 819.404 223.336C819.916 223.656 820.5 223.816 821.156 223.816ZM829.909 226V213.76H832.861V216.64H832.933V226H829.909ZM838.501 226V218.272C838.501 217.52 838.309 216.952 837.925 216.568C837.541 216.184 836.981 215.992 836.245 215.992C835.605 215.992 835.029 216.136 834.517 216.424C834.021 216.712 833.629 217.112 833.341 217.624C833.069 218.136 832.933 218.728 832.933 219.4L832.621 216.472C833.037 215.576 833.645 214.864 834.445 214.336C835.245 213.792 836.205 213.52 837.325 213.52C838.653 213.52 839.685 213.896 840.421 214.648C841.173 215.4 841.549 216.4 841.549 217.648V226H838.501ZM734.694 255V237.72H737.718V255H734.694ZM748.56 255C748.48 254.68 748.416 254.328 748.368 253.944C748.336 253.56 748.32 253.096 748.32 252.552H748.224V246.744C748.224 246.104 748.04 245.624 747.672 245.304C747.32 244.968 746.776 244.8 746.04 244.8C745.32 244.8 744.744 244.936 744.312 245.208C743.896 245.464 743.64 245.84 743.544 246.336H740.64C740.768 245.2 741.312 244.28 742.272 243.576C743.232 242.872 744.52 242.52 746.136 242.52C747.816 242.52 749.088 242.904 749.952 243.672C750.816 244.424 751.248 245.536 751.248 247.008V252.552C751.248 252.936 751.272 253.328 751.32 253.728C751.384 254.128 751.472 254.552 751.584 255H748.56ZM744.312 255.24C743.08 255.24 742.096 254.936 741.36 254.328C740.64 253.704 740.28 252.872 740.28 251.832C740.28 250.712 740.688 249.824 741.504 249.168C742.32 248.512 743.472 248.072 744.96 247.848L748.776 247.272V249.192L745.464 249.696C744.744 249.808 744.2 250.008 743.832 250.296C743.48 250.584 743.304 250.984 743.304 251.496C743.304 251.96 743.472 252.32 743.808 252.576C744.144 252.816 744.608 252.936 745.2 252.936C746.064 252.936 746.784 252.72 747.36 252.288C747.936 251.856 748.224 251.328 748.224 250.704L748.56 252.552C748.24 253.432 747.712 254.104 746.976 254.568C746.256 255.016 745.368 255.24 744.312 255.24ZM754.353 259.92L757.521 252.816L758.073 251.904L761.529 242.76H764.745L757.425 259.92H754.353ZM757.065 254.88L752.097 242.76H755.385L759.537 253.752L757.065 254.88ZM771.596 255.24C770.3 255.24 769.164 254.968 768.188 254.424C767.228 253.88 766.476 253.128 765.932 252.168C765.404 251.208 765.14 250.104 765.14 248.856C765.14 247.608 765.404 246.512 765.932 245.568C766.476 244.608 767.228 243.864 768.188 243.336C769.148 242.792 770.268 242.52 771.548 242.52C772.764 242.52 773.82 242.776 774.716 243.288C775.612 243.784 776.308 244.488 776.804 245.4C777.3 246.312 777.548 247.376 777.548 248.592C777.548 248.816 777.54 249.024 777.524 249.216C777.508 249.408 777.484 249.6 777.452 249.792H767.012V247.68H775.124L774.5 248.256C774.5 247.104 774.236 246.24 773.708 245.664C773.18 245.088 772.444 244.8 771.5 244.8C770.476 244.8 769.66 245.152 769.052 245.856C768.46 246.56 768.164 247.576 768.164 248.904C768.164 250.216 768.46 251.224 769.052 251.928C769.66 252.616 770.516 252.96 771.62 252.96C772.26 252.96 772.82 252.84 773.3 252.6C773.78 252.36 774.132 251.992 774.356 251.496H777.212C776.812 252.648 776.132 253.56 775.172 254.232C774.228 254.904 773.036 255.24 771.596 255.24ZM779.811 255V242.76H782.763V245.712H782.835V255H779.811ZM782.835 248.616L782.523 245.712C782.811 244.672 783.299 243.88 783.987 243.336C784.675 242.792 785.499 242.52 786.459 242.52C786.795 242.52 787.035 242.552 787.179 242.616V245.472C787.099 245.44 786.987 245.424 786.843 245.424C786.699 245.408 786.523 245.4 786.315 245.4C785.147 245.4 784.275 245.656 783.699 246.168C783.123 246.68 782.835 247.496 782.835 248.616Z" fill="white"/>
<rect x="660" y="323" width="195" height="126" rx="10" fill="#FFBAF7" fill-opacity="0.75"/>
<path d="M727.166 380L722.198 362.72H725.366L729.59 378.584H728.678L732.59 362.72H736.19L740.054 378.584H739.166L743.39 362.72H746.414L741.446 380H737.894L733.958 364.496H734.702L730.718 380H727.166ZM754.924 380C754.844 379.68 754.78 379.328 754.732 378.944C754.7 378.56 754.684 378.096 754.684 377.552H754.588V371.744C754.588 371.104 754.404 370.624 754.036 370.304C753.684 369.968 753.14 369.8 752.404 369.8C751.684 369.8 751.108 369.936 750.676 370.208C750.26 370.464 750.004 370.84 749.908 371.336H747.004C747.132 370.2 747.676 369.28 748.636 368.576C749.596 367.872 750.884 367.52 752.5 367.52C754.18 367.52 755.452 367.904 756.316 368.672C757.18 369.424 757.612 370.536 757.612 372.008V377.552C757.612 377.936 757.636 378.328 757.684 378.728C757.748 379.128 757.836 379.552 757.948 380H754.924ZM750.676 380.24C749.444 380.24 748.46 379.936 747.724 379.328C747.004 378.704 746.644 377.872 746.644 376.832C746.644 375.712 747.052 374.824 747.868 374.168C748.684 373.512 749.836 373.072 751.324 372.848L755.14 372.272V374.192L751.828 374.696C751.108 374.808 750.564 375.008 750.196 375.296C749.844 375.584 749.668 375.984 749.668 376.496C749.668 376.96 749.836 377.32 750.172 377.576C750.508 377.816 750.972 377.936 751.564 377.936C752.428 377.936 753.148 377.72 753.724 377.288C754.3 376.856 754.588 376.328 754.588 375.704L754.924 377.552C754.604 378.432 754.076 379.104 753.34 379.568C752.62 380.016 751.732 380.24 750.676 380.24ZM760.674 380V362.72H763.698V380H760.674ZM766.909 380V362.72H769.933V380H766.909ZM778.639 380.24C777.343 380.24 776.207 379.968 775.231 379.424C774.271 378.88 773.519 378.128 772.975 377.168C772.447 376.208 772.183 375.104 772.183 373.856C772.183 372.608 772.447 371.512 772.975 370.568C773.519 369.608 774.271 368.864 775.231 368.336C776.191 367.792 777.311 367.52 778.591 367.52C779.807 367.52 780.863 367.776 781.759 368.288C782.655 368.784 783.351 369.488 783.847 370.4C784.343 371.312 784.591 372.376 784.591 373.592C784.591 373.816 784.583 374.024 784.567 374.216C784.551 374.408 784.527 374.6 784.495 374.792H774.055V372.68H782.167L781.543 373.256C781.543 372.104 781.279 371.24 780.751 370.664C780.223 370.088 779.487 369.8 778.543 369.8C777.519 369.8 776.703 370.152 776.095 370.856C775.503 371.56 775.207 372.576 775.207 373.904C775.207 375.216 775.503 376.224 776.095 376.928C776.703 377.616 777.559 377.96 778.663 377.96C779.303 377.96 779.863 377.84 780.343 377.6C780.823 377.36 781.175 376.992 781.399 376.496H784.255C783.855 377.648 783.175 378.56 782.215 379.232C781.271 379.904 780.079 380.24 778.639 380.24ZM792.092 380.24C790.588 380.24 789.476 379.888 788.756 379.184C788.052 378.464 787.7 377.392 787.7 375.968V364.976L790.748 363.848V376.04C790.748 376.632 790.908 377.072 791.228 377.36C791.548 377.648 792.052 377.792 792.74 377.792C793.012 377.792 793.252 377.776 793.46 377.744C793.684 377.696 793.892 377.64 794.084 377.576V379.928C793.892 380.024 793.62 380.096 793.268 380.144C792.916 380.208 792.524 380.24 792.092 380.24ZM785.348 370.136V367.76H794.084V370.136H785.348ZM724.388 409.24C723.156 409.24 722.02 409.024 720.98 408.592C719.956 408.144 719.06 407.52 718.292 406.72C717.524 405.92 716.932 404.976 716.516 403.888C716.1 402.8 715.892 401.608 715.892 400.312C715.892 399.016 716.1 397.832 716.516 396.76C716.932 395.688 717.516 394.76 718.268 393.976C719.036 393.176 719.932 392.56 720.956 392.128C721.996 391.696 723.14 391.48 724.388 391.48C725.764 391.48 727.004 391.752 728.108 392.296C729.212 392.84 730.116 393.608 730.82 394.6C731.54 395.576 731.98 396.728 732.14 398.056H729.068C728.876 396.76 728.356 395.768 727.508 395.08C726.66 394.376 725.628 394.024 724.412 394.024C723.34 394.024 722.404 394.28 721.604 394.792C720.804 395.304 720.18 396.032 719.732 396.976C719.284 397.904 719.06 399.008 719.06 400.288C719.06 401.6 719.284 402.736 719.732 403.696C720.18 404.64 720.812 405.376 721.628 405.904C722.444 406.432 723.38 406.696 724.436 406.696C725.62 406.696 726.636 406.352 727.484 405.664C728.332 404.96 728.868 403.968 729.092 402.688H732.188C731.996 404 731.54 405.152 730.82 406.144C730.116 407.136 729.212 407.904 728.108 408.448C727.004 408.976 725.764 409.24 724.388 409.24ZM740.063 409.24C738.767 409.24 737.623 408.968 736.631 408.424C735.655 407.88 734.895 407.128 734.351 406.168C733.807 405.192 733.535 404.08 733.535 402.832C733.535 401.584 733.807 400.488 734.351 399.544C734.895 398.6 735.655 397.864 736.631 397.336C737.623 396.792 738.767 396.52 740.063 396.52C741.375 396.52 742.519 396.792 743.495 397.336C744.471 397.864 745.231 398.6 745.775 399.544C746.319 400.488 746.591 401.584 746.591 402.832C746.591 404.08 746.311 405.192 745.751 406.168C745.207 407.128 744.447 407.88 743.471 408.424C742.495 408.968 741.359 409.24 740.063 409.24ZM740.063 406.816C740.703 406.816 741.279 406.656 741.791 406.336C742.303 406 742.703 405.536 742.991 404.944C743.279 404.336 743.423 403.624 743.423 402.808C743.423 401.608 743.103 400.664 742.463 399.976C741.839 399.288 741.039 398.944 740.063 398.944C739.087 398.944 738.279 399.288 737.639 399.976C736.999 400.664 736.679 401.608 736.679 402.808C736.679 403.624 736.823 404.336 737.111 404.944C737.415 405.536 737.815 406 738.311 406.336C738.823 406.656 739.407 406.816 740.063 406.816ZM748.815 409V396.76H751.767V399.64H751.839V409H748.815ZM757.407 409V401.272C757.407 400.52 757.215 399.952 756.831 399.568C756.447 399.184 755.887 398.992 755.151 398.992C754.511 398.992 753.935 399.136 753.423 399.424C752.927 399.712 752.535 400.112 752.247 400.624C751.975 401.136 751.839 401.728 751.839 402.4L751.527 399.472C751.943 398.576 752.551 397.864 753.351 397.336C754.151 396.792 755.111 396.52 756.231 396.52C757.559 396.52 758.591 396.896 759.327 397.648C760.079 398.4 760.455 399.4 760.455 400.648V409H757.407ZM768.561 409.24C767.057 409.24 765.945 408.888 765.225 408.184C764.521 407.464 764.169 406.392 764.169 404.968V393.976L767.217 392.848V405.04C767.217 405.632 767.377 406.072 767.697 406.36C768.017 406.648 768.521 406.792 769.209 406.792C769.481 406.792 769.721 406.776 769.929 406.744C770.153 406.696 770.361 406.64 770.553 406.576V408.928C770.361 409.024 770.089 409.096 769.737 409.144C769.385 409.208 768.993 409.24 768.561 409.24ZM761.817 399.136V396.76H770.553V399.136H761.817ZM772.815 409V396.76H775.767V399.712H775.839V409H772.815ZM775.839 402.616L775.527 399.712C775.815 398.672 776.303 397.88 776.991 397.336C777.679 396.792 778.503 396.52 779.463 396.52C779.799 396.52 780.039 396.552 780.183 396.616V399.472C780.103 399.44 779.991 399.424 779.847 399.424C779.703 399.408 779.527 399.4 779.319 399.4C778.151 399.4 777.279 399.656 776.703 400.168C776.127 400.68 775.839 401.496 775.839 402.616ZM787.617 409.24C786.321 409.24 785.177 408.968 784.185 408.424C783.209 407.88 782.449 407.128 781.905 406.168C781.361 405.192 781.089 404.08 781.089 402.832C781.089 401.584 781.361 400.488 781.905 399.544C782.449 398.6 783.209 397.864 784.185 397.336C785.177 396.792 786.321 396.52 787.617 396.52C788.929 396.52 790.073 396.792 791.049 397.336C792.025 397.864 792.785 398.6 793.329 399.544C793.873 400.488 794.145 401.584 794.145 402.832C794.145 404.08 793.865 405.192 793.305 406.168C792.761 407.128 792.001 407.88 791.025 408.424C790.049 408.968 788.913 409.24 787.617 409.24ZM787.617 406.816C788.257 406.816 788.833 406.656 789.345 406.336C789.857 406 790.257 405.536 790.545 404.944C790.833 404.336 790.977 403.624 790.977 402.808C790.977 401.608 790.657 400.664 790.017 399.976C789.393 399.288 788.593 398.944 787.617 398.944C786.641 398.944 785.833 399.288 785.193 399.976C784.553 400.664 784.233 401.608 784.233 402.808C784.233 403.624 784.377 404.336 784.665 404.944C784.969 405.536 785.369 406 785.865 406.336C786.377 406.656 786.961 406.816 787.617 406.816ZM796.37 409V391.72H799.394V409H796.37Z" fill="white"/>
<rect x="660" y="477" width="195" height="126" rx="10" fill="#FFBAF7" fill-opacity="0.75"/>
<path d="M697.658 534V519.192H691.922V516.72H706.514V519.192H700.778V534H697.658ZM706.124 534V521.76H709.076V524.712H709.148V534H706.124ZM709.148 527.616L708.836 524.712C709.124 523.672 709.612 522.88 710.3 522.336C710.988 521.792 711.812 521.52 712.772 521.52C713.108 521.52 713.348 521.552 713.492 521.616V524.472C713.412 524.44 713.3 524.424 713.156 524.424C713.012 524.408 712.836 524.4 712.628 524.4C711.46 524.4 710.588 524.656 710.012 525.168C709.436 525.68 709.148 526.496 709.148 527.616ZM722.685 534C722.605 533.68 722.541 533.328 722.493 532.944C722.461 532.56 722.445 532.096 722.445 531.552H722.349V525.744C722.349 525.104 722.165 524.624 721.797 524.304C721.445 523.968 720.901 523.8 720.165 523.8C719.445 523.8 718.869 523.936 718.437 524.208C718.021 524.464 717.765 524.84 717.669 525.336H714.765C714.893 524.2 715.437 523.28 716.397 522.576C717.357 521.872 718.645 521.52 720.261 521.52C721.941 521.52 723.213 521.904 724.077 522.672C724.941 523.424 725.373 524.536 725.373 526.008V531.552C725.373 531.936 725.397 532.328 725.445 532.728C725.509 533.128 725.597 533.552 725.709 534H722.685ZM718.437 534.24C717.205 534.24 716.221 533.936 715.485 533.328C714.765 532.704 714.405 531.872 714.405 530.832C714.405 529.712 714.813 528.824 715.629 528.168C716.445 527.512 717.597 527.072 719.085 526.848L722.901 526.272V528.192L719.589 528.696C718.869 528.808 718.325 529.008 717.957 529.296C717.605 529.584 717.429 529.984 717.429 530.496C717.429 530.96 717.597 531.32 717.933 531.576C718.269 531.816 718.733 531.936 719.325 531.936C720.189 531.936 720.909 531.72 721.485 531.288C722.061 530.856 722.349 530.328 722.349 529.704L722.685 531.552C722.365 532.432 721.837 533.104 721.101 533.568C720.381 534.016 719.493 534.24 718.437 534.24ZM728.436 534V521.76H731.388V524.64H731.46V534H728.436ZM737.028 534V526.272C737.028 525.52 736.836 524.952 736.452 524.568C736.068 524.184 735.508 523.992 734.772 523.992C734.132 523.992 733.556 524.136 733.044 524.424C732.548 524.712 732.156 525.112 731.868 525.624C731.596 526.136 731.46 526.728 731.46 527.4L731.148 524.472C731.564 523.576 732.172 522.864 732.972 522.336C733.772 521.792 734.732 521.52 735.852 521.52C737.18 521.52 738.212 521.896 738.948 522.648C739.7 523.4 740.076 524.4 740.076 525.648V534H737.028ZM747.765 534.24C746.069 534.24 744.717 533.888 743.709 533.184C742.701 532.464 742.149 531.472 742.053 530.208H744.813C744.893 530.832 745.189 531.304 745.701 531.624C746.213 531.944 746.901 532.104 747.765 532.104C748.549 532.104 749.133 531.984 749.517 531.744C749.917 531.488 750.117 531.128 750.117 530.664C750.117 530.328 750.005 530.056 749.781 529.848C749.557 529.624 749.133 529.44 748.509 529.296L746.541 528.84C745.197 528.552 744.197 528.104 743.541 527.496C742.901 526.872 742.581 526.096 742.581 525.168C742.581 524.032 743.013 523.144 743.877 522.504C744.757 521.848 745.965 521.52 747.501 521.52C749.021 521.52 750.237 521.848 751.149 522.504C752.077 523.144 752.589 524.032 752.685 525.168H749.925C749.845 524.672 749.589 524.296 749.157 524.04C748.741 523.784 748.165 523.656 747.429 523.656C746.741 523.656 746.221 523.768 745.869 523.992C745.517 524.2 745.341 524.512 745.341 524.928C745.341 525.248 745.477 525.52 745.749 525.744C746.021 525.952 746.477 526.136 747.117 526.296L749.229 526.776C750.429 527.048 751.333 527.52 751.941 528.192C752.565 528.864 752.877 529.656 752.877 530.568C752.877 531.736 752.429 532.64 751.533 533.28C750.637 533.92 749.381 534.24 747.765 534.24ZM762.787 534C762.707 533.68 762.643 533.328 762.595 532.944C762.563 532.56 762.547 532.096 762.547 531.552H762.451V525.744C762.451 525.104 762.267 524.624 761.899 524.304C761.547 523.968 761.003 523.8 760.267 523.8C759.547 523.8 758.971 523.936 758.539 524.208C758.123 524.464 757.867 524.84 757.771 525.336H754.867C754.995 524.2 755.539 523.28 756.499 522.576C757.459 521.872 758.747 521.52 760.363 521.52C762.043 521.52 763.315 521.904 764.179 522.672C765.043 523.424 765.475 524.536 765.475 526.008V531.552C765.475 531.936 765.499 532.328 765.547 532.728C765.611 533.128 765.699 533.552 765.811 534H762.787ZM758.539 534.24C757.307 534.24 756.323 533.936 755.587 533.328C754.867 532.704 754.507 531.872 754.507 530.832C754.507 529.712 754.915 528.824 755.731 528.168C756.547 527.512 757.699 527.072 759.187 526.848L763.003 526.272V528.192L759.691 528.696C758.971 528.808 758.427 529.008 758.059 529.296C757.707 529.584 757.531 529.984 757.531 530.496C757.531 530.96 757.699 531.32 758.035 531.576C758.371 531.816 758.835 531.936 759.427 531.936C760.291 531.936 761.011 531.72 761.587 531.288C762.163 530.856 762.451 530.328 762.451 529.704L762.787 531.552C762.467 532.432 761.939 533.104 761.203 533.568C760.483 534.016 759.595 534.24 758.539 534.24ZM773.654 534.24C772.422 534.24 771.334 533.968 770.39 533.424C769.462 532.88 768.726 532.128 768.182 531.168C767.654 530.192 767.39 529.088 767.39 527.856C767.39 526.624 767.654 525.536 768.182 524.592C768.726 523.632 769.462 522.88 770.39 522.336C771.334 521.792 772.422 521.52 773.654 521.52C774.662 521.52 775.574 521.712 776.39 522.096C777.206 522.464 777.878 522.992 778.406 523.68C778.934 524.352 779.27 525.136 779.414 526.032H776.51C776.334 525.376 775.998 524.864 775.502 524.496C775.006 524.128 774.406 523.944 773.702 523.944C773.046 523.944 772.478 524.104 771.998 524.424C771.534 524.744 771.174 525.2 770.918 525.792C770.662 526.384 770.534 527.072 770.534 527.856C770.534 528.656 770.662 529.352 770.918 529.944C771.174 530.536 771.542 531 772.022 531.336C772.502 531.656 773.062 531.816 773.702 531.816C774.406 531.816 775.006 531.632 775.502 531.264C775.998 530.896 776.334 530.384 776.51 529.728H779.414C779.27 530.624 778.926 531.416 778.382 532.104C777.854 532.776 777.182 533.304 776.366 533.688C775.566 534.056 774.662 534.24 773.654 534.24ZM786.971 534.24C785.467 534.24 784.355 533.888 783.635 533.184C782.931 532.464 782.579 531.392 782.579 529.968V518.976L785.627 517.848V530.04C785.627 530.632 785.787 531.072 786.107 531.36C786.427 531.648 786.931 531.792 787.619 531.792C787.891 531.792 788.131 531.776 788.339 531.744C788.563 531.696 788.771 531.64 788.963 531.576V533.928C788.771 534.024 788.499 534.096 788.147 534.144C787.795 534.208 787.403 534.24 786.971 534.24ZM780.227 524.136V521.76H788.963V524.136H780.227ZM791.155 534V521.76H794.179V534H791.155ZM791.011 519.744V516.408H794.299V519.744H791.011ZM802.91 534.24C801.614 534.24 800.47 533.968 799.478 533.424C798.502 532.88 797.742 532.128 797.198 531.168C796.654 530.192 796.382 529.08 796.382 527.832C796.382 526.584 796.654 525.488 797.198 524.544C797.742 523.6 798.502 522.864 799.478 522.336C800.47 521.792 801.614 521.52 802.91 521.52C804.222 521.52 805.366 521.792 806.342 522.336C807.318 522.864 808.078 523.6 808.622 524.544C809.166 525.488 809.438 526.584 809.438 527.832C809.438 529.08 809.158 530.192 808.598 531.168C808.054 532.128 807.294 532.88 806.318 533.424C805.342 533.968 804.206 534.24 802.91 534.24ZM802.91 531.816C803.55 531.816 804.126 531.656 804.638 531.336C805.15 531 805.55 530.536 805.838 529.944C806.126 529.336 806.27 528.624 806.27 527.808C806.27 526.608 805.95 525.664 805.31 524.976C804.686 524.288 803.886 523.944 802.91 523.944C801.934 523.944 801.126 524.288 800.486 524.976C799.846 525.664 799.526 526.608 799.526 527.808C799.526 528.624 799.67 529.336 799.958 529.944C800.262 530.536 800.662 531 801.158 531.336C801.67 531.656 802.254 531.816 802.91 531.816ZM811.663 534V521.76H814.615V524.64H814.687V534H811.663ZM820.255 534V526.272C820.255 525.52 820.063 524.952 819.679 524.568C819.295 524.184 818.735 523.992 817.999 523.992C817.359 523.992 816.783 524.136 816.271 524.424C815.775 524.712 815.383 525.112 815.095 525.624C814.823 526.136 814.687 526.728 814.687 527.4L814.375 524.472C814.791 523.576 815.399 522.864 816.199 522.336C816.999 521.792 817.959 521.52 819.079 521.52C820.407 521.52 821.439 521.896 822.175 522.648C822.927 523.4 823.303 524.4 823.303 525.648V534H820.255ZM683.726 563V545.72H688.574L693.854 562.376H692.15L697.43 545.72H702.302V563H699.23V546.752H699.734L694.598 563H691.262L686.174 546.896H686.654V563H683.726ZM713.041 563C712.961 562.68 712.897 562.328 712.849 561.944C712.817 561.56 712.801 561.096 712.801 560.552H712.705V554.744C712.705 554.104 712.521 553.624 712.153 553.304C711.801 552.968 711.257 552.8 710.521 552.8C709.801 552.8 709.225 552.936 708.793 553.208C708.377 553.464 708.121 553.84 708.025 554.336H705.121C705.249 553.2 705.793 552.28 706.753 551.576C707.713 550.872 709.001 550.52 710.617 550.52C712.297 550.52 713.569 550.904 714.433 551.672C715.297 552.424 715.729 553.536 715.729 555.008V560.552C715.729 560.936 715.753 561.328 715.801 561.728C715.865 562.128 715.953 562.552 716.065 563H713.041ZM708.793 563.24C707.561 563.24 706.577 562.936 705.841 562.328C705.121 561.704 704.761 560.872 704.761 559.832C704.761 558.712 705.169 557.824 705.985 557.168C706.801 556.512 707.953 556.072 709.441 555.848L713.257 555.272V557.192L709.945 557.696C709.225 557.808 708.681 558.008 708.313 558.296C707.961 558.584 707.785 558.984 707.785 559.496C707.785 559.96 707.953 560.32 708.289 560.576C708.625 560.816 709.089 560.936 709.681 560.936C710.545 560.936 711.265 560.72 711.841 560.288C712.417 559.856 712.705 559.328 712.705 558.704L713.041 560.552C712.721 561.432 712.193 562.104 711.457 562.568C710.737 563.016 709.849 563.24 708.793 563.24ZM718.792 563V550.76H721.744V553.64H721.816V563H718.792ZM727.384 563V555.272C727.384 554.52 727.192 553.952 726.808 553.568C726.424 553.184 725.864 552.992 725.128 552.992C724.488 552.992 723.912 553.136 723.4 553.424C722.904 553.712 722.512 554.112 722.224 554.624C721.952 555.136 721.816 555.728 721.816 556.4L721.504 553.472C721.92 552.576 722.528 551.864 723.328 551.336C724.128 550.792 725.088 550.52 726.208 550.52C727.536 550.52 728.568 550.896 729.304 551.648C730.056 552.4 730.432 553.4 730.432 554.648V563H727.384ZM740.885 563C740.805 562.68 740.741 562.328 740.693 561.944C740.661 561.56 740.645 561.096 740.645 560.552H740.549V554.744C740.549 554.104 740.365 553.624 739.997 553.304C739.645 552.968 739.101 552.8 738.365 552.8C737.645 552.8 737.069 552.936 736.637 553.208C736.221 553.464 735.965 553.84 735.869 554.336H732.965C733.093 553.2 733.637 552.28 734.597 551.576C735.557 550.872 736.845 550.52 738.461 550.52C740.141 550.52 741.413 550.904 742.277 551.672C743.141 552.424 743.573 553.536 743.573 555.008V560.552C743.573 560.936 743.597 561.328 743.645 561.728C743.709 562.128 743.797 562.552 743.909 563H740.885ZM736.637 563.24C735.405 563.24 734.421 562.936 733.685 562.328C732.965 561.704 732.605 560.872 732.605 559.832C732.605 558.712 733.013 557.824 733.829 557.168C734.645 556.512 735.797 556.072 737.285 555.848L741.101 555.272V557.192L737.789 557.696C737.069 557.808 736.525 558.008 736.157 558.296C735.805 558.584 735.629 558.984 735.629 559.496C735.629 559.96 735.797 560.32 736.133 560.576C736.469 560.816 736.933 560.936 737.525 560.936C738.389 560.936 739.109 560.72 739.685 560.288C740.261 559.856 740.549 559.328 740.549 558.704L740.885 560.552C740.565 561.432 740.037 562.104 739.301 562.568C738.581 563.016 737.693 563.24 736.637 563.24ZM751.824 568.16C750.208 568.16 748.88 567.808 747.84 567.104C746.816 566.4 746.208 565.448 746.016 564.248H748.896C749.04 564.664 749.352 564.984 749.832 565.208C750.328 565.448 750.968 565.568 751.752 565.568C752.888 565.568 753.728 565.312 754.272 564.8C754.816 564.304 755.088 563.544 755.088 562.52V559.88L755.304 559.928C755.112 560.824 754.624 561.544 753.84 562.088C753.056 562.616 752.096 562.88 750.96 562.88C749.872 562.88 748.92 562.624 748.104 562.112C747.304 561.6 746.68 560.888 746.232 559.976C745.784 559.048 745.56 557.968 745.56 556.736C745.56 555.488 745.792 554.4 746.256 553.472C746.72 552.544 747.368 551.824 748.2 551.312C749.048 550.784 750.032 550.52 751.152 550.52C752.304 550.52 753.248 550.8 753.984 551.36C754.736 551.904 755.2 552.664 755.376 553.64L755.184 553.664V550.76H758.136V562.496C758.136 564.24 757.568 565.616 756.432 566.624C755.312 567.648 753.776 568.16 751.824 568.16ZM751.944 560.48C752.92 560.48 753.696 560.152 754.272 559.496C754.864 558.824 755.16 557.888 755.16 556.688C755.16 555.488 754.864 554.56 754.272 553.904C753.68 553.248 752.896 552.92 751.92 552.92C750.96 552.92 750.184 553.256 749.592 553.928C749 554.584 748.704 555.512 748.704 556.712C748.704 557.912 749 558.84 749.592 559.496C750.184 560.152 750.968 560.48 751.944 560.48ZM766.85 563.24C765.554 563.24 764.418 562.968 763.442 562.424C762.482 561.88 761.73 561.128 761.186 560.168C760.658 559.208 760.394 558.104 760.394 556.856C760.394 555.608 760.658 554.512 761.186 553.568C761.73 552.608 762.482 551.864 763.442 551.336C764.402 550.792 765.522 550.52 766.802 550.52C768.018 550.52 769.074 550.776 769.97 551.288C770.866 551.784 771.562 552.488 772.058 553.4C772.554 554.312 772.802 555.376 772.802 556.592C772.802 556.816 772.794 557.024 772.778 557.216C772.762 557.408 772.738 557.6 772.706 557.792H762.266V555.68H770.378L769.754 556.256C769.754 555.104 769.49 554.24 768.962 553.664C768.434 553.088 767.698 552.8 766.754 552.8C765.73 552.8 764.914 553.152 764.306 553.856C763.714 554.56 763.418 555.576 763.418 556.904C763.418 558.216 763.714 559.224 764.306 559.928C764.914 560.616 765.77 560.96 766.874 560.96C767.514 560.96 768.074 560.84 768.554 560.6C769.034 560.36 769.386 559.992 769.61 559.496H772.466C772.066 560.648 771.386 561.56 770.426 562.232C769.482 562.904 768.29 563.24 766.85 563.24ZM775.065 563V550.76H778.017V553.64H778.089V563H775.065ZM783.297 563V555.104C783.297 554.384 783.113 553.856 782.745 553.52C782.393 553.168 781.889 552.992 781.233 552.992C780.657 552.992 780.129 553.128 779.649 553.4C779.169 553.672 778.785 554.056 778.497 554.552C778.225 555.048 778.089 555.624 778.089 556.28L777.777 553.472C778.193 552.576 778.793 551.864 779.577 551.336C780.361 550.792 781.273 550.52 782.313 550.52C783.561 550.52 784.545 550.88 785.265 551.6C785.985 552.304 786.345 553.216 786.345 554.336V563H783.297ZM791.529 563V555.104C791.529 554.384 791.353 553.856 791.001 553.52C790.649 553.168 790.145 552.992 789.489 552.992C788.897 552.992 788.361 553.128 787.881 553.4C787.401 553.672 787.025 554.056 786.753 554.552C786.481 555.048 786.345 555.624 786.345 556.28L785.817 553.472C786.217 552.576 786.825 551.864 787.641 551.336C788.457 550.792 789.401 550.52 790.473 550.52C791.753 550.52 792.753 550.888 793.473 551.624C794.209 552.344 794.577 553.304 794.577 554.504V563H791.529ZM803.155 563.24C801.859 563.24 800.723 562.968 799.747 562.424C798.787 561.88 798.035 561.128 797.491 560.168C796.963 559.208 796.699 558.104 796.699 556.856C796.699 555.608 796.963 554.512 797.491 553.568C798.035 552.608 798.787 551.864 799.747 551.336C800.707 550.792 801.827 550.52 803.107 550.52C804.323 550.52 805.379 550.776 806.275 551.288C807.171 551.784 807.867 552.488 808.363 553.4C808.859 554.312 809.107 555.376 809.107 556.592C809.107 556.816 809.099 557.024 809.083 557.216C809.067 557.408 809.043 557.6 809.011 557.792H798.571V555.68H806.683L806.059 556.256C806.059 555.104 805.795 554.24 805.267 553.664C804.739 553.088 804.003 552.8 803.059 552.8C802.035 552.8 801.219 553.152 800.611 553.856C800.019 554.56 799.723 555.576 799.723 556.904C799.723 558.216 800.019 559.224 800.611 559.928C801.219 560.616 802.075 560.96 803.179 560.96C803.819 560.96 804.379 560.84 804.859 560.6C805.339 560.36 805.691 559.992 805.915 559.496H808.771C808.371 560.648 807.691 561.56 806.731 562.232C805.787 562.904 804.595 563.24 803.155 563.24ZM811.37 563V550.76H814.322V553.64H814.394V563H811.37ZM819.962 563V555.272C819.962 554.52 819.77 553.952 819.386 553.568C819.002 553.184 818.442 552.992 817.706 552.992C817.066 552.992 816.49 553.136 815.978 553.424C815.482 553.712 815.09 554.112 814.802 554.624C814.53 555.136 814.394 555.728 814.394 556.4L814.082 553.472C814.498 552.576 815.106 551.864 815.906 551.336C816.706 550.792 817.666 550.52 818.786 550.52C820.114 550.52 821.146 550.896 821.882 551.648C822.634 552.4 823.01 553.4 823.01 554.648V563H819.962ZM831.116 563.24C829.612 563.24 828.5 562.888 827.78 562.184C827.076 561.464 826.724 560.392 826.724 558.968V547.976L829.772 546.848V559.04C829.772 559.632 829.932 560.072 830.252 560.36C830.572 560.648 831.076 560.792 831.764 560.792C832.036 560.792 832.276 560.776 832.484 560.744C832.708 560.696 832.916 560.64 833.108 560.576V562.928C832.916 563.024 832.644 563.096 832.292 563.144C831.94 563.208 831.548 563.24 831.116 563.24ZM824.372 553.136V550.76H833.108V553.136H824.372Z" fill="white"/>
<rect x="631" y="75" width="254" height="622" rx="19" stroke="#FFBAF7" stroke-opacity="0.75" stroke-width="2"/>
<rect x="660" y="42" width="195" height="64" rx="20" fill="#FD78DA"/>
<path d="M708.839 83V81.032H713.999C714.975 81.032 715.735 80.768 716.279 80.24C716.839 79.712 717.119 78.992 717.119 78.08C717.119 77.12 716.823 76.352 716.231 75.776C715.655 75.2 714.863 74.912 713.855 74.912H708.839V72.992H713.615C714.591 72.992 715.343 72.76 715.871 72.296C716.415 71.816 716.687 71.136 716.687 70.256C716.687 69.424 716.431 68.792 715.919 68.36C715.423 67.912 714.687 67.688 713.711 67.688H708.839V65.72H714.095C715.663 65.72 716.911 66.104 717.839 66.872C718.767 67.624 719.231 68.656 719.231 69.968C719.231 70.8 719.039 71.536 718.655 72.176C718.287 72.8 717.775 73.288 717.119 73.64C716.463 73.976 715.719 74.144 714.887 74.144L715.007 73.64C715.903 73.64 716.703 73.848 717.407 74.264C718.111 74.664 718.671 75.216 719.087 75.92C719.503 76.624 719.711 77.44 719.711 78.368C719.711 79.28 719.487 80.088 719.039 80.792C718.607 81.496 717.991 82.04 717.191 82.424C716.391 82.808 715.463 83 714.407 83H708.839ZM706.967 83V65.72H709.511V83H706.967ZM729.785 83C729.705 82.696 729.649 82.36 729.617 81.992C729.601 81.624 729.593 81.176 729.593 80.648H729.473V74.816C729.473 74.032 729.273 73.448 728.873 73.064C728.489 72.664 727.873 72.464 727.025 72.464C726.209 72.464 725.553 72.624 725.057 72.944C724.577 73.264 724.297 73.72 724.217 74.312H721.841C721.953 73.16 722.473 72.24 723.401 71.552C724.329 70.864 725.569 70.52 727.121 70.52C728.721 70.52 729.921 70.896 730.721 71.648C731.521 72.384 731.921 73.472 731.921 74.912V80.648C731.921 81.016 731.945 81.392 731.993 81.776C732.041 82.16 732.113 82.568 732.209 83H729.785ZM725.561 83.24C724.313 83.24 723.321 82.936 722.585 82.328C721.849 81.704 721.481 80.864 721.481 79.808C721.481 78.72 721.865 77.864 722.633 77.24C723.417 76.6 724.537 76.168 725.993 75.944L730.025 75.296V77.048L726.377 77.624C725.561 77.752 724.945 77.968 724.529 78.272C724.129 78.576 723.929 79.016 723.929 79.592C723.929 80.152 724.113 80.576 724.481 80.864C724.865 81.136 725.417 81.272 726.137 81.272C727.097 81.272 727.889 81.04 728.513 80.576C729.153 80.112 729.473 79.528 729.473 78.824L729.785 80.6C729.497 81.448 728.985 82.104 728.249 82.568C727.513 83.016 726.617 83.24 725.561 83.24ZM740.297 83.24C739.129 83.24 738.089 82.968 737.177 82.424C736.265 81.864 735.545 81.104 735.017 80.144C734.505 79.184 734.249 78.088 734.249 76.856C734.249 75.624 734.505 74.536 735.017 73.592C735.545 72.632 736.265 71.88 737.177 71.336C738.089 70.792 739.121 70.52 740.273 70.52C741.249 70.52 742.121 70.704 742.889 71.072C743.657 71.44 744.289 71.952 744.785 72.608C745.281 73.264 745.601 74.04 745.745 74.936H743.393C743.233 74.216 742.881 73.64 742.337 73.208C741.809 72.776 741.137 72.56 740.321 72.56C739.617 72.56 739.001 72.736 738.473 73.088C737.945 73.44 737.537 73.936 737.249 74.576C736.961 75.216 736.817 75.976 736.817 76.856C736.817 77.72 736.961 78.48 737.249 79.136C737.537 79.792 737.945 80.304 738.473 80.672C739.001 81.024 739.625 81.2 740.345 81.2C741.129 81.2 741.793 80.992 742.337 80.576C742.897 80.144 743.257 79.568 743.417 78.848H745.769C745.609 79.728 745.273 80.496 744.761 81.152C744.265 81.808 743.633 82.32 742.865 82.688C742.097 83.056 741.241 83.24 740.297 83.24ZM748.24 83V65.408H750.736V83H748.24ZM756.184 83L750.16 76.64L755.992 70.76H759.136L752.512 77.192L752.632 76.064L759.376 83H756.184ZM766.1 83V65.72H768.644V83H766.1ZM767.348 83V80.912H778.1V83H767.348ZM767.348 75.104V73.016H777.236V75.104H767.348ZM767.348 67.808V65.72H777.884V67.808H767.348ZM781.287 83V70.76H783.663V73.64H783.783V83H781.287ZM789.975 83V75.128C789.975 74.28 789.759 73.648 789.327 73.232C788.911 72.816 788.287 72.608 787.455 72.608C786.735 72.608 786.095 72.768 785.535 73.088C784.991 73.408 784.559 73.848 784.239 74.408C783.935 74.968 783.783 75.632 783.783 76.4L783.471 73.472C783.871 72.56 784.487 71.84 785.319 71.312C786.151 70.784 787.119 70.52 788.223 70.52C789.535 70.52 790.567 70.888 791.319 71.624C792.071 72.36 792.447 73.336 792.447 74.552V83H789.975ZM804.674 83V80.192L804.914 80.264C804.658 81.176 804.13 81.904 803.33 82.448C802.53 82.976 801.57 83.24 800.45 83.24C799.346 83.24 798.378 82.976 797.546 82.448C796.73 81.92 796.09 81.184 795.626 80.24C795.178 79.296 794.954 78.192 794.954 76.928C794.954 75.648 795.186 74.528 795.65 73.568C796.114 72.608 796.762 71.864 797.594 71.336C798.426 70.808 799.402 70.544 800.522 70.544C801.69 70.544 802.65 70.824 803.402 71.384C804.17 71.928 804.674 72.696 804.914 73.688L804.578 73.736V65.72H807.05V83H804.674ZM801.074 81.152C802.178 81.152 803.05 80.776 803.69 80.024C804.33 79.256 804.65 78.2 804.65 76.856C804.65 75.544 804.322 74.512 803.666 73.76C803.026 72.992 802.154 72.608 801.05 72.608C799.962 72.608 799.098 72.992 798.458 73.76C797.834 74.512 797.522 75.568 797.522 76.928C797.522 78.256 797.834 79.296 798.458 80.048C799.098 80.784 799.97 81.152 801.074 81.152Z" fill="white"/>
<rect x="988" y="246" width="195" height="126" rx="10" fill="#FFBAF7" fill-opacity="0.75"/>
<path d="M1035.61 317V314.504H1040.07C1041.38 314.504 1042.5 314.24 1043.43 313.712C1044.36 313.184 1045.06 312.448 1045.54 311.504C1046.04 310.56 1046.29 309.48 1046.29 308.264C1046.29 307.064 1046.04 306.008 1045.54 305.096C1045.06 304.184 1044.36 303.48 1043.43 302.984C1042.52 302.472 1041.4 302.216 1040.07 302.216H1035.65V299.72H1040.07C1041.96 299.72 1043.61 300.072 1045.01 300.776C1046.42 301.48 1047.51 302.48 1048.28 303.776C1049.06 305.056 1049.45 306.568 1049.45 308.312C1049.45 310.056 1049.06 311.584 1048.28 312.896C1047.49 314.192 1046.4 315.2 1044.99 315.92C1043.6 316.64 1041.97 317 1040.09 317H1035.61ZM1033.71 317V299.72H1036.83V317H1033.71ZM1059.3 317C1059.22 316.68 1059.15 316.328 1059.11 315.944C1059.07 315.56 1059.06 315.096 1059.06 314.552H1058.96V308.744C1058.96 308.104 1058.78 307.624 1058.41 307.304C1058.06 306.968 1057.51 306.8 1056.78 306.8C1056.06 306.8 1055.48 306.936 1055.05 307.208C1054.63 307.464 1054.38 307.84 1054.28 308.336H1051.38C1051.51 307.2 1052.05 306.28 1053.01 305.576C1053.97 304.872 1055.26 304.52 1056.87 304.52C1058.55 304.52 1059.83 304.904 1060.69 305.672C1061.55 306.424 1061.99 307.536 1061.99 309.008V314.552C1061.99 314.936 1062.01 315.328 1062.06 315.728C1062.12 316.128 1062.21 316.552 1062.32 317H1059.3ZM1055.05 317.24C1053.82 317.24 1052.83 316.936 1052.1 316.328C1051.38 315.704 1051.02 314.872 1051.02 313.832C1051.02 312.712 1051.43 311.824 1052.24 311.168C1053.06 310.512 1054.21 310.072 1055.7 309.848L1059.51 309.272V311.192L1056.2 311.696C1055.48 311.808 1054.94 312.008 1054.57 312.296C1054.22 312.584 1054.04 312.984 1054.04 313.496C1054.04 313.96 1054.21 314.32 1054.55 314.576C1054.88 314.816 1055.35 314.936 1055.94 314.936C1056.8 314.936 1057.52 314.72 1058.1 314.288C1058.67 313.856 1058.96 313.328 1058.96 312.704L1059.3 314.552C1058.98 315.432 1058.45 316.104 1057.71 316.568C1056.99 317.016 1056.11 317.24 1055.05 317.24ZM1069.89 317.24C1068.39 317.24 1067.27 316.888 1066.55 316.184C1065.85 315.464 1065.5 314.392 1065.5 312.968V301.976L1068.55 300.848V313.04C1068.55 313.632 1068.71 314.072 1069.03 314.36C1069.35 314.648 1069.85 314.792 1070.54 314.792C1070.81 314.792 1071.05 314.776 1071.26 314.744C1071.48 314.696 1071.69 314.64 1071.88 314.576V316.928C1071.69 317.024 1071.42 317.096 1071.07 317.144C1070.71 317.208 1070.32 317.24 1069.89 317.24ZM1063.15 307.136V304.76H1071.88V307.136H1063.15ZM1081.61 317C1081.53 316.68 1081.47 316.328 1081.42 315.944C1081.39 315.56 1081.37 315.096 1081.37 314.552H1081.28V308.744C1081.28 308.104 1081.09 307.624 1080.72 307.304C1080.37 306.968 1079.83 306.8 1079.09 306.8C1078.37 306.8 1077.8 306.936 1077.36 307.208C1076.95 307.464 1076.69 307.84 1076.6 308.336H1073.69C1073.82 307.2 1074.36 306.28 1075.32 305.576C1076.28 304.872 1077.57 304.52 1079.19 304.52C1080.87 304.52 1082.14 304.904 1083 305.672C1083.87 306.424 1084.3 307.536 1084.3 309.008V314.552C1084.3 314.936 1084.32 315.328 1084.37 315.728C1084.44 316.128 1084.52 316.552 1084.64 317H1081.61ZM1077.36 317.24C1076.13 317.24 1075.15 316.936 1074.41 316.328C1073.69 315.704 1073.33 314.872 1073.33 313.832C1073.33 312.712 1073.74 311.824 1074.56 311.168C1075.37 310.512 1076.52 310.072 1078.01 309.848L1081.83 309.272V311.192L1078.52 311.696C1077.8 311.808 1077.25 312.008 1076.88 312.296C1076.53 312.584 1076.36 312.984 1076.36 313.496C1076.36 313.96 1076.52 314.32 1076.86 314.576C1077.2 314.816 1077.66 314.936 1078.25 314.936C1079.12 314.936 1079.84 314.72 1080.41 314.288C1080.99 313.856 1081.28 313.328 1081.28 312.704L1081.61 314.552C1081.29 315.432 1080.76 316.104 1080.03 316.568C1079.31 317.016 1078.42 317.24 1077.36 317.24ZM1094.35 317.24C1093.18 317.24 1092.22 316.968 1091.47 316.424C1090.73 315.864 1090.27 315.096 1090.1 314.12L1090.31 314.096V317H1087.36V299.72H1090.39V307.52L1090.17 307.472C1090.38 306.56 1090.87 305.84 1091.63 305.312C1092.42 304.784 1093.39 304.52 1094.54 304.52C1095.63 304.52 1096.57 304.784 1097.37 305.312C1098.19 305.824 1098.82 306.552 1099.27 307.496C1099.71 308.44 1099.94 309.552 1099.94 310.832C1099.94 312.128 1099.71 313.256 1099.24 314.216C1098.78 315.176 1098.13 315.92 1097.3 316.448C1096.47 316.976 1095.48 317.24 1094.35 317.24ZM1093.58 314.744C1094.55 314.744 1095.33 314.408 1095.91 313.736C1096.48 313.048 1096.77 312.088 1096.77 310.856C1096.77 309.624 1096.47 308.672 1095.88 308C1095.31 307.328 1094.53 306.992 1093.55 306.992C1092.59 306.992 1091.82 307.336 1091.23 308.024C1090.63 308.696 1090.34 309.648 1090.34 310.88C1090.34 312.112 1090.63 313.064 1091.23 313.736C1091.82 314.408 1092.6 314.744 1093.58 314.744ZM1109.88 317C1109.8 316.68 1109.73 316.328 1109.68 315.944C1109.65 315.56 1109.64 315.096 1109.64 314.552H1109.54V308.744C1109.54 308.104 1109.36 307.624 1108.99 307.304C1108.64 306.968 1108.09 306.8 1107.36 306.8C1106.64 306.8 1106.06 306.936 1105.63 307.208C1105.21 307.464 1104.96 307.84 1104.86 308.336H1101.96C1102.08 307.2 1102.63 306.28 1103.59 305.576C1104.55 304.872 1105.84 304.52 1107.45 304.52C1109.13 304.52 1110.4 304.904 1111.27 305.672C1112.13 306.424 1112.56 307.536 1112.56 309.008V314.552C1112.56 314.936 1112.59 315.328 1112.64 315.728C1112.7 316.128 1112.79 316.552 1112.9 317H1109.88ZM1105.63 317.24C1104.4 317.24 1103.41 316.936 1102.68 316.328C1101.96 315.704 1101.6 314.872 1101.6 313.832C1101.6 312.712 1102 311.824 1102.82 311.168C1103.64 310.512 1104.79 310.072 1106.28 309.848L1110.09 309.272V311.192L1106.78 311.696C1106.06 311.808 1105.52 312.008 1105.15 312.296C1104.8 312.584 1104.62 312.984 1104.62 313.496C1104.62 313.96 1104.79 314.32 1105.12 314.576C1105.46 314.816 1105.92 314.936 1106.52 314.936C1107.38 314.936 1108.1 314.72 1108.68 314.288C1109.25 313.856 1109.54 313.328 1109.54 312.704L1109.88 314.552C1109.56 315.432 1109.03 316.104 1108.29 316.568C1107.57 317.016 1106.68 317.24 1105.63 317.24ZM1120.07 317.24C1118.38 317.24 1117.03 316.888 1116.02 316.184C1115.01 315.464 1114.46 314.472 1114.36 313.208H1117.12C1117.2 313.832 1117.5 314.304 1118.01 314.624C1118.52 314.944 1119.21 315.104 1120.07 315.104C1120.86 315.104 1121.44 314.984 1121.83 314.744C1122.23 314.488 1122.43 314.128 1122.43 313.664C1122.43 313.328 1122.31 313.056 1122.09 312.848C1121.87 312.624 1121.44 312.44 1120.82 312.296L1118.85 311.84C1117.51 311.552 1116.51 311.104 1115.85 310.496C1115.21 309.872 1114.89 309.096 1114.89 308.168C1114.89 307.032 1115.32 306.144 1116.19 305.504C1117.07 304.848 1118.27 304.52 1119.81 304.52C1121.33 304.52 1122.55 304.848 1123.46 305.504C1124.39 306.144 1124.9 307.032 1124.99 308.168H1122.23C1122.15 307.672 1121.9 307.296 1121.47 307.04C1121.05 306.784 1120.47 306.656 1119.74 306.656C1119.05 306.656 1118.53 306.768 1118.18 306.992C1117.83 307.2 1117.65 307.512 1117.65 307.928C1117.65 308.248 1117.79 308.52 1118.06 308.744C1118.33 308.952 1118.79 309.136 1119.43 309.296L1121.54 309.776C1122.74 310.048 1123.64 310.52 1124.25 311.192C1124.87 311.864 1125.19 312.656 1125.19 313.568C1125.19 314.736 1124.74 315.64 1123.84 316.28C1122.95 316.92 1121.69 317.24 1120.07 317.24ZM1133.17 317.24C1131.87 317.24 1130.74 316.968 1129.76 316.424C1128.8 315.88 1128.05 315.128 1127.51 314.168C1126.98 313.208 1126.71 312.104 1126.71 310.856C1126.71 309.608 1126.98 308.512 1127.51 307.568C1128.05 306.608 1128.8 305.864 1129.76 305.336C1130.72 304.792 1131.84 304.52 1133.12 304.52C1134.34 304.52 1135.39 304.776 1136.29 305.288C1137.19 305.784 1137.88 306.488 1138.38 307.4C1138.87 308.312 1139.12 309.376 1139.12 310.592C1139.12 310.816 1139.11 311.024 1139.1 311.216C1139.08 311.408 1139.06 311.6 1139.03 311.792H1128.59V309.68H1136.7L1136.07 310.256C1136.07 309.104 1135.81 308.24 1135.28 307.664C1134.75 307.088 1134.02 306.8 1133.07 306.8C1132.05 306.8 1131.23 307.152 1130.63 307.856C1130.03 308.56 1129.74 309.576 1129.74 310.904C1129.74 312.216 1130.03 313.224 1130.63 313.928C1131.23 314.616 1132.09 314.96 1133.19 314.96C1133.83 314.96 1134.39 314.84 1134.87 314.6C1135.35 314.36 1135.71 313.992 1135.93 313.496H1138.79C1138.39 314.648 1137.71 315.56 1136.75 316.232C1135.8 316.904 1134.61 317.24 1133.17 317.24Z" fill="white"/>
<rect x="988" y="400" width="195" height="126" rx="10" fill="#FFBAF7" fill-opacity="0.75"/>
<path d="M1025.81 457V442.192H1020.07V439.72H1034.67V442.192H1028.93V457H1025.81ZM1036.95 457V439.72H1039.97V457H1036.95ZM1045.54 457V449.272C1045.54 448.52 1045.35 447.952 1044.96 447.568C1044.58 447.184 1044.02 446.992 1043.28 446.992C1042.64 446.992 1042.07 447.136 1041.56 447.424C1041.06 447.712 1040.67 448.112 1040.38 448.624C1040.11 449.136 1039.97 449.728 1039.97 450.4L1039.66 447.472C1040.08 446.576 1040.68 445.864 1041.48 445.336C1042.28 444.792 1043.24 444.52 1044.36 444.52C1045.69 444.52 1046.72 444.896 1047.46 445.648C1048.21 446.4 1048.59 447.4 1048.59 448.648V457H1045.54ZM1051.55 457V444.76H1054.57V457H1051.55ZM1051.41 442.744V439.408H1054.69V442.744H1051.41ZM1057.78 457V444.76H1060.74V447.712H1060.81V457H1057.78ZM1060.81 450.616L1060.5 447.712C1060.78 446.672 1061.27 445.88 1061.96 445.336C1062.65 444.792 1063.47 444.52 1064.43 444.52C1064.77 444.52 1065.01 444.552 1065.15 444.616V447.472C1065.07 447.44 1064.96 447.424 1064.82 447.424C1064.67 447.408 1064.5 447.4 1064.29 447.4C1063.12 447.4 1062.25 447.656 1061.67 448.168C1061.1 448.68 1060.81 449.496 1060.81 450.616ZM1075.59 457V454.24L1075.83 454.288C1075.62 455.184 1075.12 455.904 1074.32 456.448C1073.52 456.976 1072.57 457.24 1071.46 457.24C1070.34 457.24 1069.37 456.984 1068.53 456.472C1067.72 455.944 1067.09 455.208 1066.64 454.264C1066.19 453.32 1065.97 452.208 1065.97 450.928C1065.97 449.632 1066.2 448.504 1066.66 447.544C1067.13 446.584 1067.77 445.84 1068.61 445.312C1069.45 444.784 1070.44 444.52 1071.56 444.52C1072.71 444.52 1073.66 444.8 1074.41 445.36C1075.17 445.904 1075.63 446.664 1075.81 447.64L1075.49 447.664V439.72H1078.54V457H1075.59ZM1072.35 454.768C1073.33 454.768 1074.1 454.432 1074.68 453.76C1075.27 453.072 1075.57 452.112 1075.57 450.88C1075.57 449.648 1075.27 448.696 1074.68 448.024C1074.09 447.352 1073.3 447.016 1072.33 447.016C1071.37 447.016 1070.59 447.36 1070 448.048C1069.41 448.72 1069.11 449.672 1069.11 450.904C1069.11 452.136 1069.41 453.088 1070 453.76C1070.59 454.432 1071.37 454.768 1072.35 454.768ZM1081.76 451.744V449.2H1090.38V451.744H1081.76ZM1100.58 457.24C1099.41 457.24 1098.46 456.968 1097.72 456.424C1097 455.864 1096.56 455.096 1096.38 454.12L1096.62 454.096V461.92H1093.6V444.76H1096.55V447.52L1096.31 447.472C1096.53 446.56 1097.04 445.84 1097.84 445.312C1098.64 444.784 1099.62 444.52 1100.77 444.52C1101.86 444.52 1102.8 444.784 1103.6 445.312C1104.42 445.824 1105.05 446.552 1105.5 447.496C1105.95 448.44 1106.17 449.552 1106.17 450.832C1106.17 452.128 1105.94 453.256 1105.48 454.216C1105.01 455.176 1104.36 455.92 1103.53 456.448C1102.7 456.976 1101.72 457.24 1100.58 457.24ZM1099.81 454.744C1100.79 454.744 1101.56 454.408 1102.14 453.736C1102.72 453.048 1103 452.088 1103 450.856C1103 449.624 1102.71 448.672 1102.12 448C1101.54 447.328 1100.76 446.992 1099.79 446.992C1098.83 446.992 1098.05 447.336 1097.46 448.024C1096.87 448.696 1096.57 449.648 1096.57 450.88C1096.57 452.112 1096.87 453.064 1097.46 453.736C1098.05 454.408 1098.84 454.744 1099.81 454.744ZM1116.11 457C1116.03 456.68 1115.97 456.328 1115.92 455.944C1115.89 455.56 1115.87 455.096 1115.87 454.552H1115.78V448.744C1115.78 448.104 1115.59 447.624 1115.22 447.304C1114.87 446.968 1114.33 446.8 1113.59 446.8C1112.87 446.8 1112.3 446.936 1111.86 447.208C1111.45 447.464 1111.19 447.84 1111.1 448.336H1108.19C1108.32 447.2 1108.86 446.28 1109.82 445.576C1110.78 444.872 1112.07 444.52 1113.69 444.52C1115.37 444.52 1116.64 444.904 1117.5 445.672C1118.37 446.424 1118.8 447.536 1118.8 449.008V454.552C1118.8 454.936 1118.82 455.328 1118.87 455.728C1118.94 456.128 1119.02 456.552 1119.14 457H1116.11ZM1111.86 457.24C1110.63 457.24 1109.65 456.936 1108.91 456.328C1108.19 455.704 1107.83 454.872 1107.83 453.832C1107.83 452.712 1108.24 451.824 1109.06 451.168C1109.87 450.512 1111.02 450.072 1112.51 449.848L1116.33 449.272V451.192L1113.02 451.696C1112.3 451.808 1111.75 452.008 1111.38 452.296C1111.03 452.584 1110.86 452.984 1110.86 453.496C1110.86 453.96 1111.02 454.32 1111.36 454.576C1111.7 454.816 1112.16 454.936 1112.75 454.936C1113.62 454.936 1114.34 454.72 1114.91 454.288C1115.49 453.856 1115.78 453.328 1115.78 452.704L1116.11 454.552C1115.79 455.432 1115.26 456.104 1114.53 456.568C1113.81 457.016 1112.92 457.24 1111.86 457.24ZM1121.86 457V444.76H1124.81V447.712H1124.89V457H1121.86ZM1124.89 450.616L1124.57 447.712C1124.86 446.672 1125.35 445.88 1126.04 445.336C1126.73 444.792 1127.55 444.52 1128.51 444.52C1128.85 444.52 1129.09 444.552 1129.23 444.616V447.472C1129.15 447.44 1129.04 447.424 1128.89 447.424C1128.75 447.408 1128.57 447.4 1128.37 447.4C1127.2 447.4 1126.33 447.656 1125.75 448.168C1125.17 448.68 1124.89 449.496 1124.89 450.616ZM1137.01 457.24C1135.51 457.24 1134.4 456.888 1133.68 456.184C1132.97 455.464 1132.62 454.392 1132.62 452.968V441.976L1135.67 440.848V453.04C1135.67 453.632 1135.83 454.072 1136.15 454.36C1136.47 454.648 1136.97 454.792 1137.66 454.792C1137.93 454.792 1138.17 454.776 1138.38 454.744C1138.61 454.696 1138.81 454.64 1139.01 454.576V456.928C1138.81 457.024 1138.54 457.096 1138.19 457.144C1137.84 457.208 1137.45 457.24 1137.01 457.24ZM1130.27 447.136V444.76H1139.01V447.136H1130.27ZM1142.11 461.92L1145.27 454.816L1145.83 453.904L1149.28 444.76H1152.5L1145.18 461.92H1142.11ZM1144.82 456.88L1139.85 444.76H1143.14L1147.29 455.752L1144.82 456.88ZM1046.04 486.216C1043.87 486.216 1042.13 485.72 1040.84 484.728C1039.56 483.72 1038.8 482.304 1038.58 480.48H1041.58C1041.72 481.536 1042.2 482.36 1043 482.952C1043.8 483.528 1044.84 483.816 1046.14 483.816C1047.21 483.816 1048.03 483.624 1048.59 483.24C1049.16 482.84 1049.45 482.288 1049.45 481.584C1049.45 480.96 1049.28 480.456 1048.92 480.072C1048.57 479.688 1047.98 479.376 1047.15 479.136L1044.03 478.2C1042.44 477.72 1041.28 477.088 1040.52 476.304C1039.79 475.52 1039.42 474.536 1039.42 473.352C1039.42 472.36 1039.68 471.496 1040.19 470.76C1040.7 470.024 1041.42 469.456 1042.35 469.056C1043.29 468.656 1044.39 468.456 1045.64 468.456C1047.56 468.456 1049.08 468.928 1050.22 469.872C1051.37 470.8 1052.03 472.064 1052.19 473.664H1049.19C1049.01 472.704 1048.61 472 1047.99 471.552C1047.36 471.088 1046.52 470.856 1045.47 470.856C1044.54 470.856 1043.8 471.04 1043.26 471.408C1042.72 471.776 1042.44 472.28 1042.44 472.92C1042.44 473.448 1042.6 473.896 1042.92 474.264C1043.26 474.632 1043.88 474.952 1044.77 475.224L1047.94 476.184C1049.52 476.648 1050.68 477.28 1051.4 478.08C1052.12 478.88 1052.48 479.896 1052.48 481.128C1052.48 482.76 1051.91 484.016 1050.77 484.896C1049.65 485.776 1048.08 486.216 1046.04 486.216ZM1060.2 486.24C1058.9 486.24 1057.77 485.968 1056.79 485.424C1055.83 484.88 1055.08 484.128 1054.53 483.168C1054.01 482.208 1053.74 481.104 1053.74 479.856C1053.74 478.608 1054.01 477.512 1054.53 476.568C1055.08 475.608 1055.83 474.864 1056.79 474.336C1057.75 473.792 1058.87 473.52 1060.15 473.52C1061.37 473.52 1062.42 473.776 1063.32 474.288C1064.21 474.784 1064.91 475.488 1065.41 476.4C1065.9 477.312 1066.15 478.376 1066.15 479.592C1066.15 479.816 1066.14 480.024 1066.13 480.216C1066.11 480.408 1066.09 480.6 1066.05 480.792H1055.61V478.68H1063.73L1063.1 479.256C1063.1 478.104 1062.84 477.24 1062.31 476.664C1061.78 476.088 1061.05 475.8 1060.1 475.8C1059.08 475.8 1058.26 476.152 1057.65 476.856C1057.06 477.56 1056.77 478.576 1056.77 479.904C1056.77 481.216 1057.06 482.224 1057.65 482.928C1058.26 483.616 1059.12 483.96 1060.22 483.96C1060.86 483.96 1061.42 483.84 1061.9 483.6C1062.38 483.36 1062.73 482.992 1062.96 482.496H1065.81C1065.41 483.648 1064.73 484.56 1063.77 485.232C1062.83 485.904 1061.64 486.24 1060.2 486.24ZM1068.41 486V473.76H1071.36V476.712H1071.44V486H1068.41ZM1071.44 479.616L1071.12 476.712C1071.41 475.672 1071.9 474.88 1072.59 474.336C1073.28 473.792 1074.1 473.52 1075.06 473.52C1075.4 473.52 1075.64 473.552 1075.78 473.616V476.472C1075.7 476.44 1075.59 476.424 1075.44 476.424C1075.3 476.408 1075.12 476.4 1074.92 476.4C1073.75 476.4 1072.88 476.656 1072.3 477.168C1071.72 477.68 1071.44 478.496 1071.44 479.616ZM1081.48 486L1076.58 473.76H1079.84L1083.76 485.016H1082.15L1086.06 473.76H1089.23L1084.31 486H1081.48ZM1090.75 486V473.76H1093.77V486H1090.75ZM1090.6 471.744V468.408H1093.89V471.744H1090.6ZM1102.24 486.24C1101.01 486.24 1099.92 485.968 1098.98 485.424C1098.05 484.88 1097.31 484.128 1096.77 483.168C1096.24 482.192 1095.98 481.088 1095.98 479.856C1095.98 478.624 1096.24 477.536 1096.77 476.592C1097.31 475.632 1098.05 474.88 1098.98 474.336C1099.92 473.792 1101.01 473.52 1102.24 473.52C1103.25 473.52 1104.16 473.712 1104.98 474.096C1105.79 474.464 1106.46 474.992 1106.99 475.68C1107.52 476.352 1107.86 477.136 1108 478.032H1105.1C1104.92 477.376 1104.58 476.864 1104.09 476.496C1103.59 476.128 1102.99 475.944 1102.29 475.944C1101.63 475.944 1101.06 476.104 1100.58 476.424C1100.12 476.744 1099.76 477.2 1099.5 477.792C1099.25 478.384 1099.12 479.072 1099.12 479.856C1099.12 480.656 1099.25 481.352 1099.5 481.944C1099.76 482.536 1100.13 483 1100.61 483.336C1101.09 483.656 1101.65 483.816 1102.29 483.816C1102.99 483.816 1103.59 483.632 1104.09 483.264C1104.58 482.896 1104.92 482.384 1105.1 481.728H1108C1107.86 482.624 1107.51 483.416 1106.97 484.104C1106.44 484.776 1105.77 485.304 1104.95 485.688C1104.15 486.056 1103.25 486.24 1102.24 486.24ZM1115.6 486.24C1114.31 486.24 1113.17 485.968 1112.2 485.424C1111.24 484.88 1110.48 484.128 1109.94 483.168C1109.41 482.208 1109.15 481.104 1109.15 479.856C1109.15 478.608 1109.41 477.512 1109.94 476.568C1110.48 475.608 1111.24 474.864 1112.2 474.336C1113.16 473.792 1114.28 473.52 1115.56 473.52C1116.77 473.52 1117.83 473.776 1118.72 474.288C1119.62 474.784 1120.32 475.488 1120.81 476.4C1121.31 477.312 1121.56 478.376 1121.56 479.592C1121.56 479.816 1121.55 480.024 1121.53 480.216C1121.52 480.408 1121.49 480.6 1121.46 480.792H1111.02V478.68H1119.13L1118.51 479.256C1118.51 478.104 1118.24 477.24 1117.72 476.664C1117.19 476.088 1116.45 475.8 1115.51 475.8C1114.48 475.8 1113.67 476.152 1113.06 476.856C1112.47 477.56 1112.17 478.576 1112.17 479.904C1112.17 481.216 1112.47 482.224 1113.06 482.928C1113.67 483.616 1114.52 483.96 1115.63 483.96C1116.27 483.96 1116.83 483.84 1117.31 483.6C1117.79 483.36 1118.14 482.992 1118.36 482.496H1121.22C1120.82 483.648 1120.14 484.56 1119.18 485.232C1118.24 485.904 1117.04 486.24 1115.6 486.24ZM1128.57 486.24C1126.87 486.24 1125.52 485.888 1124.51 485.184C1123.51 484.464 1122.95 483.472 1122.86 482.208H1125.62C1125.7 482.832 1125.99 483.304 1126.51 483.624C1127.02 483.944 1127.71 484.104 1128.57 484.104C1129.35 484.104 1129.94 483.984 1130.32 483.744C1130.72 483.488 1130.92 483.128 1130.92 482.664C1130.92 482.328 1130.81 482.056 1130.59 481.848C1130.36 481.624 1129.94 481.44 1129.31 481.296L1127.35 480.84C1126 480.552 1125 480.104 1124.35 479.496C1123.71 478.872 1123.39 478.096 1123.39 477.168C1123.39 476.032 1123.82 475.144 1124.68 474.504C1125.56 473.848 1126.77 473.52 1128.31 473.52C1129.83 473.52 1131.04 473.848 1131.95 474.504C1132.88 475.144 1133.39 476.032 1133.49 477.168H1130.73C1130.65 476.672 1130.39 476.296 1129.96 476.04C1129.55 475.784 1128.97 475.656 1128.23 475.656C1127.55 475.656 1127.03 475.768 1126.67 475.992C1126.32 476.2 1126.15 476.512 1126.15 476.928C1126.15 477.248 1126.28 477.52 1126.55 477.744C1126.83 477.952 1127.28 478.136 1127.92 478.296L1130.03 478.776C1131.23 479.048 1132.14 479.52 1132.75 480.192C1133.37 480.864 1133.68 481.656 1133.68 482.568C1133.68 483.736 1133.23 484.64 1132.34 485.28C1131.44 485.92 1130.19 486.24 1128.57 486.24Z" fill="white"/>
<rect x="959" y="152" width="254" height="468" rx="19" stroke="#FFBAF7" stroke-opacity="0.75" stroke-width="2"/>
<circle cx="1086" cy="143" r="55" fill="#FD78DA"/>
<mask id="mask1_292_139" style="mask-type:alpha" maskUnits="userSpaceOnUse" x="1051" y="109" width="69" height="69">
<rect x="1051" y="109" width="69" height="69" fill="#D9D9D9"/>
</mask>
<g mask="url(#mask1_292_139)">
<path d="M1085.5 166.5C1078.78 166.5 1073.27 165.644 1068.96 163.932C1064.65 162.22 1062.5 160.017 1062.5 157.322V129.125C1062.5 126.736 1064.74 124.702 1069.23 123.021C1073.71 121.34 1079.13 120.5 1085.5 120.5C1091.87 120.5 1097.29 121.34 1101.77 123.021C1106.26 124.702 1108.5 126.736 1108.5 129.125V157.322C1108.5 160.017 1106.35 162.22 1102.04 163.932C1097.73 165.644 1092.22 166.5 1085.5 166.5ZM1085.5 134.245C1089.55 134.245 1093.67 133.665 1097.88 132.506C1102.09 131.347 1104.76 130.032 1105.9 128.561C1104.75 127.064 1102.09 125.715 1097.92 124.514C1093.75 123.312 1089.61 122.712 1085.5 122.712C1081.39 122.712 1077.23 123.289 1073 124.442C1068.77 125.596 1066.1 126.895 1064.98 128.34C1066.06 129.907 1068.68 131.282 1072.84 132.467C1077.01 133.652 1081.22 134.245 1085.5 134.245ZM1085.48 149.239C1087.46 149.239 1089.43 149.131 1091.41 148.916C1093.39 148.7 1095.27 148.386 1097.06 147.973C1098.85 147.56 1100.53 147.052 1102.12 146.447C1103.7 145.842 1105.09 145.175 1106.29 144.445V131.48C1105.05 132.247 1103.64 132.932 1102.08 133.537C1100.51 134.141 1098.82 134.65 1097.01 135.063C1095.19 135.476 1093.31 135.793 1091.37 136.014C1089.42 136.235 1087.46 136.346 1085.48 136.346C1083.43 136.346 1081.41 136.226 1079.42 135.986C1077.42 135.747 1075.53 135.421 1073.74 135.008C1071.95 134.595 1070.3 134.095 1068.77 133.509C1067.25 132.923 1065.89 132.247 1064.71 131.48V144.445C1065.86 145.175 1067.2 145.833 1068.74 146.42C1070.27 147.006 1071.94 147.514 1073.73 147.945C1075.52 148.377 1077.4 148.7 1079.37 148.916C1081.35 149.131 1083.39 149.239 1085.48 149.239ZM1085.5 164.288C1088.02 164.288 1090.43 164.131 1092.73 163.815C1095.02 163.501 1097.09 163.063 1098.92 162.502C1100.75 161.942 1102.31 161.273 1103.6 160.496C1104.88 159.718 1105.78 158.879 1106.29 157.98V146.673C1105.09 147.44 1103.7 148.114 1102.12 148.694C1100.53 149.275 1098.85 149.771 1097.06 150.184C1095.27 150.597 1093.39 150.912 1091.42 151.127C1089.45 151.343 1087.47 151.451 1085.48 151.451C1083.39 151.451 1081.35 151.343 1079.37 151.127C1077.4 150.912 1075.52 150.597 1073.73 150.184C1071.94 149.771 1070.28 149.265 1068.76 148.666C1067.25 148.067 1065.89 147.403 1064.71 146.673V157.996C1065.21 158.922 1066.1 159.767 1067.38 160.532C1068.66 161.296 1070.21 161.956 1072.05 162.511C1073.89 163.066 1075.96 163.501 1078.26 163.815C1080.55 164.131 1082.97 164.288 1085.5 164.288Z" fill="white"/>
</g>
<path d="M302 389L287 380.34V397.66L302 389ZM230 389V390.5H234.5V389V387.5H230V389ZM243.5 389V390.5H252.5V389V387.5H243.5V389ZM261.5 389V390.5H270.5V389V387.5H261.5V389ZM279.5 389V390.5H288.5V389V387.5H279.5V389ZM302 389L287 380.34V397.66L302 389ZM230 389V390.5H234.5V389V387.5H230V389ZM243.5 389V390.5H252.5V389V387.5H243.5V389ZM261.5 389V390.5H270.5V389V387.5H261.5V389ZM279.5 389V390.5H288.5V389V387.5H279.5V389Z" fill="white"/>
<path d="M632 355L617 346.34V363.66L632 355ZM560 355V356.5H564.5V355V353.5H560V355ZM573.5 355V356.5H582.5V355V353.5H573.5V355ZM591.5 355V356.5H600.5V355V353.5H591.5V355ZM609.5 355V356.5H618.5V355V353.5H609.5V355ZM632 355L617 346.34V363.66L632 355ZM560 355V356.5H564.5V355V353.5H560V355ZM573.5 355V356.5H582.5V355V353.5H573.5V355ZM591.5 355V356.5H600.5V355V353.5H591.5V355ZM609.5 355V356.5H618.5V355V353.5H609.5V355Z" fill="white"/>
<path d="M560 422L575 413.34V430.66L560 422ZM632 422V423.5H627.5V422V420.5H632V422ZM618.5 422V423.5H609.5V422V420.5H618.5V422ZM600.5 422V423.5H591.5V422V420.5H600.5V422ZM582.5 422V423.5H573.5V422V420.5H582.5V422ZM560 422L575 413.34V430.66L560 422ZM632 422V423.5H627.5V422V420.5H632V422ZM618.5 422V423.5H609.5V422V420.5H618.5V422ZM600.5 422V423.5H591.5V422V420.5H600.5V422ZM582.5 422V423.5H573.5V422V420.5H582.5V422Z" fill="white"/>
<path d="M958 355L943 346.34V363.66L958 355ZM886 355V356.5H890.5V355V353.5H886V355ZM899.5 355V356.5H908.5V355V353.5H899.5V355ZM917.5 355V356.5H926.5V355V353.5H917.5V355ZM935.5 355V356.5H944.5V355V353.5H935.5V355ZM958 355L943 346.34V363.66L958 355ZM886 355V356.5H890.5V355V353.5H886V355ZM899.5 355V356.5H908.5V355V353.5H899.5V355ZM917.5 355V356.5H926.5V355V353.5H917.5V355ZM935.5 355V356.5H944.5V355V353.5H935.5V355Z" fill="white"/>
<path d="M886 422L901 413.34V430.66L886 422ZM958 422V423.5H953.5V422V420.5H958V422ZM944.5 422V423.5H935.5V422V420.5H944.5V422ZM926.5 422V423.5H917.5V422V420.5H926.5V422ZM908.5 422V423.5H899.5V422V420.5H908.5V422ZM886 422L901 413.34V430.66L886 422ZM958 422V423.5H953.5V422V420.5H958V422ZM944.5 422V423.5H935.5V422V420.5H944.5V422ZM926.5 422V423.5H917.5V422V420.5H926.5V422ZM908.5 422V423.5H899.5V422V420.5H908.5V422Z" fill="white"/>
</svg>
