<svg width="32" height="32" viewBox="0 0 32 32" fill="none" xmlns="http://www.w3.org/2000/svg">
<path d="M26.25 22.3691C26.2499 21.8019 26.1092 21.4197 25.9004 21.1318C25.6386 20.771 25.2951 20.4883 24.8291 20.2822C23.3002 19.6411 21.8575 19.1566 20.501 18.8223C19.1751 18.4956 17.8424 18.333 16.5 18.333C15.1528 18.333 13.8085 18.4908 12.4648 18.8086C11.1084 19.1295 9.6696 19.6167 8.14746 20.2773C7.70907 20.4791 7.36931 20.7601 7.09961 21.1318C6.89079 21.4197 6.75005 21.8019 6.75 22.3691V24.4053C10.423 25.6544 13.4858 26.25 16.5 26.25C19.5142 26.25 22.577 25.6544 26.25 24.4053V22.3691ZM20.1406 9.22852C20.1406 8.11948 19.7956 7.33434 19.1631 6.7207C18.5259 6.1027 17.6893 5.75 16.5 5.75C15.3107 5.75 14.4741 6.1027 13.8369 6.7207C13.2044 7.33434 12.8594 8.11948 12.8594 9.22852C12.8594 10.3378 13.2043 11.1237 13.8369 11.7373C14.4739 12.355 15.3104 12.707 16.5 12.707V14.457L16.207 14.4512C14.8549 14.3978 13.7225 13.9714 12.8105 13.1709L12.6191 12.9932C11.6129 12.0172 11.1094 10.7621 11.1094 9.22852C11.1094 7.79066 11.552 6.59805 12.4365 5.65039L12.6191 5.46387C13.6254 4.48805 14.9189 4 16.5 4C18.0811 4 19.3746 4.48805 20.3809 5.46387C21.3871 6.43981 21.8906 7.69491 21.8906 9.22852C21.8906 10.7621 21.3871 12.0172 20.3809 12.9932C19.3746 13.969 18.0811 14.457 16.5 14.457V12.707C17.6896 12.707 18.5261 12.355 19.1631 11.7373C19.7957 11.1237 20.1406 10.3378 20.1406 9.22852ZM28 25.6455C19.375 28.7843 13.625 28.7843 5 25.6455V22.3691C5.00005 21.4862 5.22746 20.7309 5.68262 20.1035C6.08096 19.5545 6.5805 19.1214 7.18066 18.8037L7.44336 18.6748C8.84783 18.0649 10.2022 17.5883 11.5059 17.2451L12.0615 17.1064C13.535 16.7579 15.0146 16.583 16.5 16.583C17.9853 16.583 19.4586 16.7629 20.9199 17.123C22.3814 17.4832 23.9153 18.0009 25.5205 18.6748C26.2631 19.0001 26.8622 19.4762 27.3174 20.1035C27.7725 20.7309 27.9999 21.4862 28 22.3691V25.6455Z" fill="white"/>
</svg>
