<svg width="72" height="72" viewBox="0 0 72 72" fill="none" xmlns="http://www.w3.org/2000/svg">
<g filter="url(#filter0_di_51_387)">
<rect x="4" y="4" width="64" height="64" rx="15.36" fill="url(#paint0_linear_51_387)"/>
<rect x="4.25" y="4.25" width="63.5" height="63.5" rx="15.11" stroke="white" stroke-opacity="0.5" stroke-width="0.5"/>
<path fill-rule="evenodd" clip-rule="evenodd" d="M34.1812 27.9935C45.4523 21.9267 55.8012 19.8385 57.8491 23.3855C59.7705 26.7137 53.7414 33.8889 43.9951 40.3193C46.5153 44.3179 47.6879 47.3805 46.7738 48.132C45.8077 48.926 42.7615 46.9333 39.0577 43.3248C27.315 49.9124 16.2738 52.2914 14.1509 48.6147C12.1698 45.1832 18.6406 37.6611 28.9236 31.0834C25.9004 26.534 24.4054 22.9499 25.4048 22.1284C26.4617 21.26 30.0083 23.7256 34.1812 27.9935ZM49.2798 25.5554C48.2343 23.7446 42.1204 25.2733 35.1097 28.9624C36.271 30.1973 37.4695 31.5574 38.6658 33.0131C38.7938 33.1689 38.9199 33.3253 39.0458 33.4807C38.2361 33.9018 37.3738 34.3826 36.4892 34.9112C35.3137 35.6136 34.2311 36.3215 33.2999 36.9854C31.9553 35.3361 30.7333 33.7115 29.6665 32.1757C23.5511 36.205 19.6644 40.365 20.6556 42.0816C21.8112 44.0823 29.1553 42.0048 37.0595 37.4414C44.9636 32.8779 50.4347 27.5565 49.2798 25.5554Z" fill="white"/>
</g>
<defs>
<filter id="filter0_di_51_387" x="0" y="0" width="72" height="72" filterUnits="userSpaceOnUse" color-interpolation-filters="sRGB">
<feFlood flood-opacity="0" result="BackgroundImageFix"/>
<feColorMatrix in="SourceAlpha" type="matrix" values="0 0 0 0 0 0 0 0 0 0 0 0 0 0 0 0 0 0 127 0" result="hardAlpha"/>
<feOffset/>
<feGaussianBlur stdDeviation="2"/>
<feComposite in2="hardAlpha" operator="out"/>
<feColorMatrix type="matrix" values="0 0 0 0 0 0 0 0 0 0 0 0 0 0 0 0 0 0 0.25 0"/>
<feBlend mode="normal" in2="BackgroundImageFix" result="effect1_dropShadow_51_387"/>
<feBlend mode="normal" in="SourceGraphic" in2="effect1_dropShadow_51_387" result="shape"/>
<feColorMatrix in="SourceAlpha" type="matrix" values="0 0 0 0 0 0 0 0 0 0 0 0 0 0 0 0 0 0 127 0" result="hardAlpha"/>
<feOffset/>
<feGaussianBlur stdDeviation="3"/>
<feComposite in2="hardAlpha" operator="arithmetic" k2="-1" k3="1"/>
<feColorMatrix type="matrix" values="0 0 0 0 1 0 0 0 0 1 0 0 0 0 1 0 0 0 0.5 0"/>
<feBlend mode="normal" in2="shape" result="effect2_innerShadow_51_387"/>
</filter>
<linearGradient id="paint0_linear_51_387" x1="36" y1="4" x2="36" y2="68" gradientUnits="userSpaceOnUse">
<stop offset="0.25" stop-color="#ED69CA"/>
<stop offset="1" stop-color="#D73CB3"/>
</linearGradient>
</defs>
</svg>
