<svg width="24" height="24" viewBox="0 0 24 24" fill="none" xmlns="http://www.w3.org/2000/svg">
<path d="M8.48323 11.1031C9.03938 11.1031 9.49104 11.5548 9.49104 12.111V20.3571L12.2596 17.5885C12.6492 17.1989 13.2806 17.1975 13.6717 17.5856C14.0647 17.9759 14.0663 18.6119 13.6746 19.0035L9.01839 23.6588C8.72308 23.9541 8.24435 23.9541 7.94905 23.6588L3.2928 19.0035C2.90114 18.6119 2.90269 17.9758 3.29573 17.5856C3.68684 17.1975 4.31823 17.1989 4.70784 17.5885L7.47639 20.3571V12.111C7.47639 11.5549 7.92727 11.1034 8.48323 11.1031Z" fill="#FFBAF7"/>
<path d="M15.4813 1.22131C15.7766 0.926337 16.2554 0.926122 16.5506 1.22131L21.2059 5.87756C21.5975 6.26915 21.5967 6.90425 21.2039 7.29455C20.8129 7.68281 20.1816 7.68208 19.7918 7.2926L17.0223 4.52307V12.7701C17.0223 13.3263 16.5716 13.777 16.0155 13.777C15.4593 13.777 15.0086 13.3263 15.0086 12.7701V4.52307L12.2391 7.2926C11.8494 7.68206 11.218 7.6828 10.827 7.29455C10.4342 6.90425 10.4334 6.26913 10.825 5.87756L15.4813 1.22131Z" fill="#FFBAF7"/>
</svg>
