<svg width="32" height="32" viewBox="0 0 32 32" fill="none" xmlns="http://www.w3.org/2000/svg">
<path d="M16 2.6665C16.5122 2.6665 17.0183 2.76431 17.5182 2.95947C18.0184 3.15442 18.4728 3.45477 18.8802 3.86051L28.1393 13.1196C28.5162 13.5029 28.8089 13.9431 29.0182 14.4399C29.2279 14.9372 29.3333 15.4574 29.3333 15.9998V25.2576C29.3333 26.3897 28.9367 27.3519 28.1445 28.1444C27.3522 28.9366 26.3906 29.3331 25.2591 29.3332H6.74218C5.61015 29.3332 4.64788 28.9368 3.85546 28.1444C3.06304 27.3519 2.66666 26.3897 2.66666 25.2576V15.9998C2.66666 15.4582 2.7688 14.9392 2.97265 14.4425C3.17626 13.9459 3.46764 13.5049 3.84634 13.1196L13.1302 3.86051C13.5278 3.45777 13.9778 3.15864 14.4792 2.96208C14.9805 2.76527 15.4874 2.6665 16 2.6665Z" fill="#FFBAF7"/>
</svg>
