<svg width="24" height="24" viewBox="0 0 24 24" fill="none" xmlns="http://www.w3.org/2000/svg">
<path fill-rule="evenodd" clip-rule="evenodd" d="M12.5342 7.83691C12.2405 7.5385 11.7597 7.53871 11.4658 7.83691L6.62695 12.7461V17.3652H17.3652V12.7461L12.5342 7.83691ZM15.8877 13.3682V15.8877H8.10449V13.3682L12 9.48047L15.8877 13.3682Z" fill="white"/>
<path fill-rule="evenodd" clip-rule="evenodd" d="M12 2C11.6158 2 11.2363 2.07335 10.8613 2.21973C10.4862 2.36594 10.1454 2.5912 9.83984 2.89551L2.89551 9.83984C2.61285 10.1273 2.3933 10.4575 2.23633 10.8301C2.07907 11.203 2 11.5931 2 12V18.9434C2 19.7924 2.29748 20.5141 2.8916 21.1084C3.48584 21.7026 4.20701 21.9999 5.05566 22H18.9434C19.7924 22 20.5141 21.7027 21.1084 21.1084C21.7027 20.5141 22 19.7924 22 18.9434V12C22 11.5938 21.9234 11.2045 21.7705 10.832C21.6178 10.4596 21.3993 10.1288 21.1152 9.83984L14.1523 2.89551C13.8542 2.59345 13.5166 2.3691 13.1406 2.22168C12.7646 2.07407 12.3845 2 12 2ZM11.998 3.47852C12.1276 3.47852 12.2978 3.50515 12.5078 3.55957C12.7179 3.61405 12.9235 3.74198 13.124 3.94238L20.0566 10.875C20.2103 11.0305 20.3261 11.2027 20.4043 11.3916C20.4823 11.5808 20.5215 11.7839 20.5215 12V18.9434C20.5215 19.3879 20.3701 19.7625 20.0664 20.0664C19.7625 20.3701 19.3879 20.5215 18.9434 20.5215H5.05566C4.60873 20.5214 4.23393 20.37 3.93164 20.0664C3.62929 19.7625 3.47852 19.3879 3.47852 18.9434V12C3.47852 11.7822 3.51573 11.5781 3.58984 11.3877C3.66392 11.1973 3.78119 11.0263 3.94238 10.875L10.8994 3.93945C11.1051 3.74042 11.3074 3.61392 11.5059 3.55957C11.704 3.50552 11.8683 3.47858 11.998 3.47852Z" fill="white"/>
</svg>
