<svg width="24" height="24" viewBox="0 0 24 24" fill="none" xmlns="http://www.w3.org/2000/svg">
<path d="M12 2C12.3842 2 12.7637 2.07335 13.1387 2.21973C13.5138 2.36594 13.8546 2.5912 14.1602 2.89551L21.1045 9.83984C21.3872 10.1273 21.6067 10.4575 21.7637 10.8301C21.9209 11.203 22 11.5931 22 12V18.9434C22 19.7924 21.7025 20.5141 21.1084 21.1084C20.5142 21.7026 19.793 21.9999 18.9443 22H5.05664C4.20762 22 3.48592 21.7027 2.8916 21.1084C2.29729 20.5141 2 19.7924 2 18.9434V12C2 11.5938 2.07661 11.2045 2.22949 10.832C2.3822 10.4596 2.60074 10.1288 2.88477 9.83984L9.84766 2.89551C10.1458 2.59345 10.4834 2.3691 10.8594 2.22168C11.2354 2.07407 11.6155 2 12 2Z" fill="white"/>
</svg>
