<svg width="48" height="48" viewBox="0 0 48 48" fill="none" xmlns="http://www.w3.org/2000/svg">
<rect width="48" height="48" rx="24" fill="#C2B1C3"/>
<path d="M24 24.5773C25.5499 24.5773 27.0874 24.7677 28.6123 25.1492C30.1373 25.5307 31.7376 26.0785 33.4126 26.7922C34.1876 27.1368 34.8126 27.6413 35.2876 28.3058C35.7626 28.9703 36 29.7702 36 30.7054V34.1757C27 37.5 21 37.5 12 34.1757V30.7054C12 29.7702 12.2374 28.9703 12.7124 28.3058C13.1874 27.6413 13.7999 27.1368 14.5498 26.7922C16.2248 26.0539 17.8312 25.5 19.3687 25.1308C20.9062 24.7616 22.45 24.5773 24 24.5773Z" fill="white"/>
<path d="M24 11.25C25.65 11.25 26.9998 11.7671 28.0498 12.8007C29.0998 13.8344 29.625 15.1635 29.625 16.7878C29.625 18.4121 29.0998 19.7413 28.0498 20.7749C26.9998 21.8085 25.6499 22.3252 24 22.3252C22.3501 22.3252 21.0002 21.8085 19.9502 20.7749C18.9002 19.7413 18.375 18.4121 18.375 16.7878C18.375 15.1635 18.9002 13.8344 19.9502 12.8007C21.0002 11.7671 22.35 11.25 24 11.25Z" fill="white"/>
</svg>
