<svg width="16" height="16" viewBox="0 0 16 16" fill="none" xmlns="http://www.w3.org/2000/svg">
<path d="M8 1.54199C8.89213 1.54203 9.73284 1.71138 10.5195 2.05078C11.3037 2.3892 11.9879 2.84929 12.5693 3.43066C13.1507 4.01211 13.6108 4.69635 13.9492 5.48047C14.2886 6.26714 14.4589 7.10789 14.459 8C14.4589 8.88525 14.2886 9.72219 13.9492 10.5088C13.6108 11.2931 13.1508 11.9794 12.5693 12.5645C11.9878 13.1494 11.3039 13.6107 10.5195 13.9492C9.73278 14.2887 8.89222 14.4589 8 14.459C7.11482 14.4589 6.27775 14.2886 5.49121 13.9492C4.70702 13.6108 4.02148 13.1492 3.43652 12.5645C2.85158 11.9794 2.3893 11.2932 2.05078 10.5088C1.71146 9.72226 1.54203 8.88516 1.54199 8C1.54203 7.1078 1.71132 6.26721 2.05078 5.48047C2.38934 4.69594 2.85137 4.01226 3.43652 3.43066C4.02161 2.84925 4.70688 2.38924 5.49121 2.05078C6.27782 1.71138 7.11473 1.54203 8 1.54199ZM8 2.84766C6.56914 2.84773 5.35519 3.34646 4.35156 4.34668C3.34818 5.34667 2.84773 6.56215 2.84766 8C2.84773 9.43057 3.34812 10.6448 4.35156 11.6484C5.35516 12.6519 6.56943 13.1532 8 13.1533C9.43785 13.1532 10.6533 12.6518 11.6533 11.6484C12.6535 10.6448 13.1532 9.43086 13.1533 8C13.1532 6.56224 12.6539 5.34655 11.6543 4.34668C10.6543 3.34672 9.43799 2.84773 8 2.84766ZM8.03223 10.2715C8.25067 10.2716 8.4404 10.3485 8.59277 10.501C8.74501 10.6535 8.82227 10.8432 8.82227 11.0615C8.82216 11.2799 8.74517 11.4696 8.59277 11.6221C8.44039 11.7744 8.25064 11.8514 8.03223 11.8516C7.81379 11.8516 7.62411 11.7743 7.47168 11.6221C7.31919 11.4696 7.2423 11.28 7.24219 11.0615C7.24219 10.8429 7.3191 10.6536 7.47168 10.501C7.62417 10.3484 7.81359 10.2715 8.03223 10.2715ZM8.08496 4.14941C8.70699 4.14952 9.23019 4.3218 9.64355 4.6748V4.67578C10.0615 5.03316 10.2675 5.5198 10.2676 6.12109C10.2675 6.46703 10.1915 6.78162 10.0361 7.06055V7.06152C9.88286 7.33609 9.6452 7.61334 9.3291 7.89355L9.32812 7.89453C8.96805 8.20564 8.77367 8.45213 8.71289 8.63574C8.64607 8.83796 8.61133 9.08352 8.61133 9.37305V9.49805H7.34766V9.37305C7.34766 8.88279 7.4173 8.49177 7.56934 8.21484C7.71685 7.94638 7.98037 7.64927 8.35059 7.3252L8.35254 7.32422C8.58531 7.12912 8.76313 6.93751 8.88867 6.75098L8.96777 6.61426C9.03497 6.47656 9.06831 6.33342 9.06836 6.18457C9.06832 5.94176 8.98046 5.73952 8.80176 5.57129C8.62651 5.40665 8.38123 5.31744 8.05273 5.31738C7.73879 5.31744 7.49232 5.40229 7.30273 5.5625C7.22287 5.63001 7.15224 5.70317 7.09082 5.78125C6.90503 6.01729 6.57399 6.19578 6.25098 6.07227C5.94702 5.95562 5.76088 5.59443 5.95215 5.28711C6.12177 5.01471 6.34145 4.78216 6.61035 4.58984C7.02332 4.29471 7.51744 4.14941 8.08496 4.14941Z" fill="#FFBAF7"/>
</svg>
