<svg width="32" height="32" viewBox="0 0 32 32" fill="none" xmlns="http://www.w3.org/2000/svg">
<path d="M18.4669 25.6002C18.4669 26.2602 18.232 26.8256 17.762 27.2956C17.292 27.7656 16.7266 28.0005 16.0667 28.0005C15.4067 28.0005 14.8413 27.7656 14.3713 27.2956C13.9013 26.8256 13.6664 26.2602 13.6664 25.6002H18.4669Z" fill="white"/>
<path d="M16.0667 4.00049C16.5666 4.00049 16.9919 4.1752 17.3419 4.52519C17.6919 4.87518 17.8666 5.30047 17.8666 5.80047V6.1907C17.6667 6.59055 17.5166 7.01033 17.4166 7.45015C17.3167 7.89005 17.2664 8.34024 17.2663 8.80014C17.2663 10.46 17.8516 11.8752 19.0215 13.0452C20.1915 14.2152 21.6066 14.8004 23.2666 14.8004V22.0003H24.4663C25.1289 22.0003 25.6667 22.5374 25.6668 23.2C25.6668 23.8627 25.129 24.4005 24.4663 24.4005H7.66705C7.00431 24.4005 6.46648 23.8627 6.46648 23.2C6.46664 22.5374 7.00441 22.0003 7.66705 22.0003H8.86674V13.6007C8.86674 11.9407 9.36703 10.4654 10.367 9.17543C11.367 7.88554 12.6668 7.04068 14.2667 6.64069V5.80047C14.2667 5.30047 14.4414 4.87518 14.7914 4.52519C15.1414 4.1752 15.5667 4.00049 16.0667 4.00049Z" fill="white"/>
<path d="M23.2666 5.20018C24.2665 5.20018 25.1163 5.55057 25.8162 6.25046C26.5162 6.95038 26.8665 7.80028 26.8665 8.80014C26.8665 9.80012 26.5162 10.6507 25.8162 11.3507C25.1163 12.0505 24.2664 12.4001 23.2666 12.4001C22.2667 12.4001 21.4168 12.0505 20.7169 11.3507C20.0169 10.6507 19.6666 9.80012 19.6666 8.80014C19.6667 7.80028 20.017 6.95038 20.7169 6.25046C21.4169 5.55057 22.2666 5.20018 23.2666 5.20018Z" fill="#FFBAF7"/>
</svg>
