<svg width="32" height="32" viewBox="0 0 32 32" fill="none" xmlns="http://www.w3.org/2000/svg">
<path d="M18.4003 25.5992C18.4003 26.2591 18.1652 26.8247 17.6954 27.2946C17.2254 27.7646 16.66 27.9995 16 27.9995C15.34 27.9995 14.7746 27.7646 14.3046 27.2946C13.8348 26.8247 13.5997 26.2591 13.5997 25.5992H18.4003Z" fill="white"/>
<path d="M16 3.99951C16.5 3.99951 16.9253 4.1751 17.2753 4.52509C17.625 4.87494 17.7999 5.29979 17.8 5.79949V6.63971C19.3998 7.03967 20.6997 7.8847 21.6996 9.17445C22.6996 10.4644 23.1999 11.9398 23.1999 13.5997V21.9993H24.4C25.0629 21.9993 25.6002 22.5366 25.6002 23.1994C25.6002 23.8622 25.0629 24.3996 24.4 24.3996H7.59996C6.93714 24.3996 6.39983 23.8622 6.39983 23.1994C6.39983 22.5366 6.93714 21.9993 7.59996 21.9993H8.80009V13.5997C8.80012 11.9398 9.30041 10.4644 10.3004 9.17445C11.3003 7.8847 12.6002 7.03967 14.2 6.63971V5.79949C14.2001 5.29979 14.375 4.87494 14.7247 4.52509C15.0747 4.1751 15.5 3.99951 16 3.99951Z" fill="white"/>
</svg>
