<svg width="24" height="24" viewBox="0 0 24 24" fill="none" xmlns="http://www.w3.org/2000/svg">
<path d="M8.46094 17.6621C8.92811 17.6622 9.32674 17.826 9.65723 18.1533C9.98768 18.4808 10.1533 18.8742 10.1533 19.334C10.1533 19.7938 9.98684 20.1864 9.6543 20.5117C9.32149 20.837 8.92122 21 8.4541 21C7.98702 20.9999 7.58841 20.836 7.25781 20.5088C6.92737 20.1813 6.76182 19.7878 6.76172 19.3281C6.76172 18.8684 6.92793 18.4749 7.26074 18.1494C7.59336 17.8242 7.99376 17.6621 8.46094 17.6621Z" fill="white"/>
<path d="M17.5459 17.6621C18.0131 17.6622 18.4117 17.826 18.7422 18.1533C19.0726 18.4808 19.2382 18.8742 19.2383 19.334C19.2383 19.7938 19.0718 20.1864 18.7393 20.5117C18.4064 20.837 18.0062 21 17.5391 21C17.072 20.9999 16.6734 20.836 16.3428 20.5088C16.0123 20.1813 15.8468 19.7878 15.8467 19.3281C15.8467 18.8684 16.0129 18.4749 16.3457 18.1494C16.6783 17.8242 17.0787 17.6621 17.5459 17.6621Z" fill="white"/>
<path fill-rule="evenodd" clip-rule="evenodd" d="M6.71191 4.77344H19.9248C20.3257 4.77345 20.6306 4.95052 20.8398 5.30469C21.0491 5.65907 21.0536 6.01744 20.8516 6.37793L17.835 11.7334C17.6611 12.0298 17.4348 12.2668 17.1553 12.4434C16.8758 12.6199 16.5673 12.708 16.2305 12.708H9.42871L8.28906 14.7881H18.4941C18.942 14.7881 19.3045 15.1509 19.3047 15.5986C19.3047 16.0466 18.9421 16.4101 18.4941 16.4102H8.30566C7.6224 16.4101 7.12349 16.1609 6.80859 15.6631C6.49369 15.165 6.49221 14.6347 6.80566 14.0732L8.16797 11.6201L4.8125 4.62207H3.81152C3.3637 4.62207 3.00022 4.2593 3 3.81152C3 3.36356 3.36356 3 3.81152 3H5.86426L6.71191 4.77344ZM9.81641 11.0801H16.2783L18.8848 6.39551H7.52637L9.81641 11.0801Z" fill="white"/>
</svg>
