<svg width="24" height="24" viewBox="0 0 24 24" fill="none" xmlns="http://www.w3.org/2000/svg">
<path d="M12 11C12.4142 11 12.75 11.3358 12.75 11.75V16C12.75 16.4142 12.4142 16.75 12 16.75C11.5858 16.75 11.25 16.4142 11.25 16V11.75C11.25 11.3358 11.5858 11 12 11Z" fill="#C2B1C3"/>
<path d="M12 7.67285C12.2288 7.67285 12.4204 7.7507 12.5752 7.90527C12.73 8.06004 12.8076 8.25176 12.8076 8.48047C12.8076 8.7093 12.7297 8.90181 12.5732 9.05664C12.4169 9.21143 12.2256 9.28809 12 9.28809C11.7744 9.28809 11.5831 9.21143 11.4268 9.05664C11.2703 8.90181 11.1924 8.7093 11.1924 8.48047C11.1924 8.25176 11.27 8.06004 11.4248 7.90527C11.5796 7.7507 11.7712 7.67285 12 7.67285Z" fill="#C2B1C3"/>
<path fill-rule="evenodd" clip-rule="evenodd" d="M11.998 2.5C13.3119 2.5 14.547 2.74947 15.7031 3.24805C16.8593 3.74671 17.8655 4.42349 18.7207 5.27832C19.5758 6.13312 20.253 7.13834 20.752 8.29395C21.2508 9.44954 21.5 10.6843 21.5 11.998C21.5 13.3119 21.2505 14.547 20.752 15.7031C20.2533 16.8593 19.5765 17.8655 18.7217 18.7207C17.8669 19.5758 16.8617 20.253 15.7061 20.752C14.5505 21.2508 13.3157 21.5 12.002 21.5C10.6881 21.5 9.45296 21.2505 8.29688 20.752C7.14071 20.2533 6.13446 19.5765 5.2793 18.7217C4.42419 17.8669 3.74702 16.8617 3.24805 15.7061C2.74925 14.5505 2.50003 13.3157 2.5 12.002C2.5 10.6881 2.74947 9.45296 3.24805 8.29688C3.74671 7.14071 4.42349 6.13446 5.27832 5.2793C6.13312 4.42419 7.13834 3.74702 8.29395 3.24805C9.44954 2.74925 10.6843 2.50003 11.998 2.5ZM12 4C9.76667 4 7.8752 4.7752 6.3252 6.3252C4.7752 7.8752 4 9.76667 4 12C4 14.2333 4.7752 16.1248 6.3252 17.6748C7.8752 19.2248 9.76667 20 12 20C14.2333 20 16.1248 19.2248 17.6748 17.6748C19.2248 16.1248 20 14.2333 20 12C20 9.76667 19.2248 7.8752 17.6748 6.3252C16.1248 4.7752 14.2333 4 12 4Z" fill="#C2B1C3"/>
</svg>
