<svg width="24" height="24" viewBox="0 0 24 24" fill="none" xmlns="http://www.w3.org/2000/svg">
<path d="M12.0117 9C12.8436 9.00005 13.5518 9.29203 14.1357 9.87598C14.7197 10.46 15.0117 11.1681 15.0117 12C15.0117 12.8319 14.7197 13.54 14.1357 14.124C13.5518 14.708 12.8436 14.9999 12.0117 15C11.1694 15 10.4587 14.708 9.87988 14.124C9.30105 13.54 9.01172 12.832 9.01172 12C9.01172 11.168 9.30105 10.46 9.87988 9.87598C10.4587 9.29203 11.1694 9 12.0117 9Z" fill="#C2B1C3"/>
<path fill-rule="evenodd" clip-rule="evenodd" d="M14.6885 5.55566C14.9885 5.66466 15.2601 5.792 15.5029 5.9375C15.7459 6.08297 15.9908 6.25471 16.2383 6.45215L19.0889 5.26953L21.3965 9.25L18.917 11.123C18.9528 11.2845 18.9723 11.4357 18.9756 11.5762C18.9788 11.7165 18.9805 11.8577 18.9805 12C18.9805 12.1357 18.9772 12.2737 18.9707 12.4141C18.9644 12.5544 18.942 12.7157 18.9023 12.8965L21.3613 14.75L19.0537 18.75L16.2383 17.5479C15.9908 17.7453 15.7381 17.9204 15.4805 18.0723C15.2229 18.2242 14.9589 18.3482 14.6885 18.4443L14.3076 21.5H9.69238L9.31152 18.4541C9.04369 18.3644 8.7688 18.2386 8.4873 18.0771C8.20601 17.9155 7.95423 17.7421 7.73242 17.5576L4.91113 18.75L2.60352 14.75L5.04395 12.9053C5.021 12.7569 5.00477 12.6078 4.99512 12.458C4.98546 12.3081 4.98047 12.1585 4.98047 12.0098C4.98047 11.8677 4.98546 11.7229 4.99512 11.5762C5.00477 11.4295 5.02098 11.2689 5.04395 11.0947L2.60352 9.25L4.91113 5.26953L7.72266 6.45215C7.96382 6.26115 8.22145 6.08607 8.49512 5.92773C8.76874 5.76943 9.03763 5.64206 9.30176 5.5459L9.69238 2.5H14.3076L14.6885 5.55566ZM10.6846 6.66895C10.1745 6.78942 9.7034 6.97408 9.27148 7.22266C8.83932 7.47149 8.42651 7.7924 8.03418 8.18457L5.5498 7.15039L4.56543 8.84961L6.72461 10.46C6.64138 10.6971 6.58311 10.9441 6.5498 11.2002C6.51649 11.4565 6.5 11.7265 6.5 12.0098C6.50001 12.27 6.51648 12.5255 6.5498 12.7754C6.58314 13.0253 6.63886 13.2721 6.71582 13.5156L4.56543 15.1504L5.5498 16.8496L8.02539 15.7998C8.40486 16.1894 8.81023 16.509 9.24219 16.7578C9.67432 17.0065 10.1518 17.1977 10.6748 17.3311L11 20H12.9658L13.3252 17.3213C13.8354 17.188 14.3014 16.9983 14.7236 16.7529C15.1461 16.5073 15.554 16.1915 15.9463 15.8057L18.4307 16.8496L19.415 15.1504L17.2461 13.5156C17.3294 13.2567 17.386 13.0027 17.416 12.7539C17.4462 12.5052 17.4619 12.2538 17.4619 12C17.4619 11.7397 17.4462 11.4883 17.416 11.2461C17.386 11.0038 17.3294 10.7565 17.2461 10.5039L19.4346 8.84961L18.4502 7.15039L15.9365 8.20996C15.6019 7.85229 15.2006 7.53605 14.7334 7.26172C14.2661 6.98744 13.7935 6.79286 13.3154 6.67871L13 4H11.0156L10.6846 6.66895Z" fill="#C2B1C3"/>
</svg>
