<svg width="24" height="24" viewBox="0 0 24 24" fill="none" xmlns="http://www.w3.org/2000/svg">
<path fill-rule="evenodd" clip-rule="evenodd" d="M19.5 5.34668V11.0996C19.5 13.5175 18.7906 15.7049 17.3721 17.6611C15.9536 19.6174 14.1628 20.8906 12 21.4805C9.83721 20.8906 8.04641 19.6174 6.62793 17.6611C5.20942 15.7049 4.5 13.5175 4.5 11.0996V5.34668L12 2.53809L19.5 5.34668ZM6 6.375V11.0996C6 13.1162 6.56697 14.9497 7.7002 16.5996C8.83353 18.2496 10.2667 19.3504 12 19.9004C13.7333 19.3504 15.1665 18.2496 16.2998 16.5996C17.433 14.9497 18 13.1162 18 11.0996V6.375L12 4.13477L6 6.375Z" fill="#C2B1C3"/>
</svg>
