<svg width="24" height="24" viewBox="0 0 24 24" fill="none" xmlns="http://www.w3.org/2000/svg">
<path d="M12 2.5C13.3142 2.5 14.5492 2.7493 15.7051 3.24805C16.8609 3.7468 17.8667 4.42333 18.7217 5.27832C19.5767 6.13331 20.2532 7.1391 20.752 8.29492C21.2507 9.45076 21.5 10.6858 21.5 12C21.5 13.3036 21.2507 14.5336 20.752 15.6895C20.2532 16.8452 19.5766 17.8536 18.7217 18.7139C17.8667 19.5741 16.8609 20.2532 15.7051 20.752C14.5492 21.2507 13.3142 21.5 12 21.5C10.6964 21.5 9.46638 21.2507 8.31055 20.752C7.15483 20.2532 6.14645 19.574 5.28613 18.7139C4.42598 17.8536 3.74679 16.8452 3.24805 15.6895C2.7493 14.5336 2.5 13.3036 2.5 12C2.5 10.6858 2.7493 9.45076 3.24805 8.29492C3.74679 7.13911 4.42592 6.13331 5.28613 5.27832C6.14645 4.42339 7.15483 3.74679 8.31055 3.24805C9.46638 2.7493 10.6964 2.5 12 2.5ZM12 4.08301C9.80439 4.08301 7.93559 4.85089 6.39453 6.38672C4.85348 7.92255 4.08301 9.79395 4.08301 12C4.08301 14.1956 4.85347 16.0644 6.39453 17.6055C7.93559 19.1465 9.80439 19.917 12 19.917C14.2061 19.917 16.0775 19.1465 17.6133 17.6055C19.1491 16.0644 19.917 14.1956 19.917 12C19.917 9.79394 19.1491 7.92255 17.6133 6.38672C16.0774 4.85089 14.2061 4.08301 12 4.08301ZM12.0479 15.5938C12.3274 15.5938 12.5634 15.6903 12.7559 15.8828C12.9486 16.0755 13.0449 16.3122 13.0449 16.5918C13.0449 16.8714 12.9484 17.1072 12.7559 17.2998C12.5634 17.4923 12.3275 17.5888 12.0479 17.5889C11.7681 17.5889 11.5314 17.4923 11.3389 17.2998C11.1464 17.1072 11.0499 16.8713 11.0498 16.5918C11.0498 16.3122 11.1462 16.0755 11.3389 15.8828C11.5314 15.6902 11.7681 15.5938 12.0479 15.5938ZM12.127 6.41113C13.0241 6.4112 13.7632 6.65928 14.3438 7.15527C14.924 7.65131 15.2139 8.3268 15.2139 9.18164C15.2139 9.67245 15.1059 10.1121 14.8896 10.5C14.6732 10.8878 14.3325 11.2876 13.8682 11.6992C13.3246 12.1689 12.9988 12.5673 12.8906 12.8945C12.7825 13.2216 12.7285 13.6099 12.7285 14.0586H11.208C11.208 13.3355 11.3117 12.7859 11.5176 12.4111C11.7235 12.0366 12.1009 11.6091 12.6494 11.1289C13.0082 10.8282 13.2877 10.5285 13.4883 10.2305C13.6887 9.93234 13.7891 9.61423 13.7891 9.27637C13.789 8.85959 13.6361 8.50736 13.3301 8.21973C13.024 7.9322 12.607 7.78809 12.0791 7.78809C11.5724 7.78809 11.1566 7.9258 10.832 8.2002C10.7031 8.30921 10.5885 8.42733 10.4883 8.55469C10.2375 8.8735 9.82107 9.07794 9.44238 8.93262C9.07031 8.78966 8.87622 8.36769 9.08691 8.0293C9.32796 7.6422 9.64015 7.31087 10.0244 7.03613C10.6077 6.61924 11.309 6.41113 12.127 6.41113Z" fill="white"/>
</svg>
