<svg width="32" height="32" viewBox="0 0 32 32" fill="none" xmlns="http://www.w3.org/2000/svg">
<path fill-rule="evenodd" clip-rule="evenodd" d="M16.1575 11.758C17.3082 11.758 18.2854 12.1599 19.0888 12.9633C19.8922 13.7667 20.2936 14.744 20.2936 15.8947C20.2936 17.0453 19.8921 18.0221 19.0888 18.8255C18.2854 19.6289 17.3082 20.0308 16.1575 20.0308C15.0068 20.0308 14.0295 19.6289 13.2261 18.8255C12.4229 18.0221 12.0214 17.0453 12.0214 15.8947C12.0214 14.744 12.4227 13.7667 13.2261 12.9633C14.0295 12.1599 15.0068 11.758 16.1575 11.758ZM16.1575 13.2536C15.4205 13.2536 14.7961 13.5093 14.2843 14.021C13.7725 14.5328 13.5164 15.1576 13.5164 15.8947C13.5164 16.6317 13.7726 17.2561 14.2843 17.7678C14.7961 18.2796 15.4204 18.5358 16.1575 18.5358C16.8945 18.5358 17.5188 18.2796 18.0306 17.7678C18.5424 17.2561 18.7985 16.6317 18.7986 15.8947C18.7986 15.1576 18.5424 14.5328 18.0306 14.021C17.5189 13.5093 16.8945 13.2536 16.1575 13.2536Z" fill="white"/>
<path fill-rule="evenodd" clip-rule="evenodd" d="M16.1575 8.73547C18.4802 8.73547 20.5858 9.39174 22.4738 10.7043C24.3615 12.0168 25.7559 13.747 26.6575 15.8947C25.7559 18.0423 24.3615 19.7726 22.4738 21.0851C20.5858 22.3976 18.4802 23.0539 16.1575 23.0539C13.8347 23.0539 11.7291 22.3976 9.84115 21.0851C7.95344 19.7726 6.55905 18.0423 5.65748 15.8947C6.55903 13.747 7.95346 12.0168 9.84115 10.7043C11.7291 9.39174 13.8347 8.73548 16.1575 8.73547ZM16.1575 10.3262C14.2749 10.3262 12.5448 10.8317 10.967 11.8419C9.38936 12.8521 8.18158 14.2031 7.34381 15.8947C8.1816 17.5863 9.38935 18.9373 10.967 19.9475C12.5448 20.9577 14.2749 21.4627 16.1575 21.4627C18.04 21.4627 19.7702 20.9577 21.3479 19.9475C22.9256 18.9373 24.1282 17.5863 24.9555 15.8947C24.1282 14.2031 22.9256 12.8521 21.3479 11.8419C19.7702 10.8317 18.04 10.3262 16.1575 10.3262Z" fill="white"/>
</svg>
