<svg width="32" height="32" viewBox="0 0 32 32" fill="none" xmlns="http://www.w3.org/2000/svg">
<path fill-rule="evenodd" clip-rule="evenodd" d="M24.5155 24.7725C24.8144 25.0713 24.823 25.5532 24.5351 25.8626C24.2338 26.1863 23.7248 26.1974 23.4096 25.8873L19.9759 22.5082C19.4191 22.715 18.8131 22.8725 18.1581 22.9813C17.5033 23.09 16.8363 23.1447 16.1575 23.1447C13.8082 23.1447 11.6897 22.4909 9.80199 21.1837C7.91409 19.8766 6.5325 18.1438 5.65748 15.9854C5.98089 15.153 6.41554 14.3534 6.9618 13.5871C7.50797 12.8207 8.16044 12.1031 8.91884 11.4349L6.59383 9.09766C6.28651 8.78873 6.28542 8.28989 6.59139 7.97962C6.90097 7.66569 7.40698 7.66393 7.71874 7.97569L24.5155 24.7725ZM10.0168 12.549C9.47044 12.9733 8.95059 13.5009 8.4574 14.1319C7.96422 14.763 7.59295 15.3809 7.34381 15.9854C8.14978 17.6983 9.3444 19.0543 10.9273 20.0539C12.5103 21.0534 14.2959 21.5534 16.2844 21.5534C16.7405 21.5534 17.1889 21.5257 17.629 21.4701C18.069 21.4144 18.4271 21.3358 18.7029 21.2352L17.3986 19.9152C17.2236 19.9841 17.0245 20.0356 16.8018 20.0701C16.5791 20.1045 16.3643 20.1216 16.1575 20.1216C15.0173 20.1216 14.0426 19.7226 13.2339 18.9246C12.4254 18.1265 12.0214 17.1467 12.0214 15.9854C12.0214 15.768 12.0385 15.5531 12.0728 15.3411C12.1073 15.129 12.1589 14.93 12.2277 14.7443L10.0168 12.549Z" fill="white"/>
<path d="M16.2369 8.82622C18.5544 8.82622 20.6545 9.4799 22.537 10.7872C24.4197 12.0943 25.7931 13.827 26.6575 15.9854C26.2598 16.977 25.744 17.8878 25.1104 18.7177C24.4766 19.5476 23.7411 20.2756 22.9034 20.9012L21.8054 19.8195C22.5266 19.2839 23.159 18.6886 23.7026 18.0336C24.246 17.3789 24.6637 16.6961 24.9555 15.9854C24.16 14.2725 22.9839 12.916 21.4273 11.9164C19.871 10.9169 18.1675 10.4169 16.3169 10.4169C15.7176 10.4169 15.1099 10.4698 14.4946 10.5758C13.8797 10.6819 13.3682 10.8149 12.9599 10.974L11.735 9.73286C12.3236 9.4731 13.0209 9.25706 13.8268 9.08462C14.6329 8.91234 15.4362 8.82622 16.2369 8.82622Z" fill="white"/>
<path d="M16.1575 11.8487C17.3082 11.8487 18.2854 12.2506 19.0888 13.0541C19.8922 13.8575 20.2936 14.8348 20.2936 15.9854C20.2936 16.3247 20.254 16.6546 20.1745 16.9754C20.0949 17.2963 19.9812 17.587 19.8327 17.8468L18.671 16.6851C18.9946 15.6829 18.7799 14.8237 18.0267 14.1078C17.2738 13.392 16.4175 13.1802 15.4578 13.4719L14.2961 12.3102C14.5665 12.1511 14.8594 12.0344 15.1748 11.9601C15.4904 11.8859 15.8181 11.8488 16.1575 11.8487Z" fill="white"/>
</svg>
