<svg width="24" height="24" viewBox="0 0 24 24" fill="none" xmlns="http://www.w3.org/2000/svg">
<path d="M3.40918 18.1279C3.40918 18.2049 3.44169 18.2758 3.50586 18.3398C3.56991 18.4038 3.64014 18.4355 3.7168 18.4355H19.4795V19.6924H3.7168C3.29011 19.6924 2.923 19.5383 2.61523 19.2305C2.30723 18.9225 2.15332 18.5548 2.15332 18.1279V7.98047H3.40918V18.1279Z" fill="white"/>
<path fill-rule="evenodd" clip-rule="evenodd" d="M20.8965 5C21.3232 5.00002 21.6903 5.1542 21.998 5.46191C22.306 5.76991 22.46 6.13762 22.46 6.56445V15.1152C22.46 15.5421 22.306 15.9098 21.998 16.2178C21.6903 16.5254 21.3232 16.6797 20.8965 16.6797H6.72949C6.30282 16.6797 5.93568 16.5254 5.62793 16.2178C5.31993 15.9098 5.16602 15.5421 5.16602 15.1152V6.56445C5.16602 6.13762 5.31993 5.76991 5.62793 5.46191C5.9357 5.1542 6.30278 5.00004 6.72949 5H20.8965ZM6.42188 15.1152C6.42188 15.1986 6.45267 15.271 6.51367 15.332C6.57442 15.3927 6.64632 15.4228 6.72949 15.4229H8.47363C8.47357 14.8541 8.27315 14.37 7.87305 13.9707C7.47291 13.5715 6.98915 13.3721 6.42188 13.3721V15.1152ZM21.2041 13.3721C20.6354 13.3721 20.1512 13.5717 19.752 13.9717C19.3527 14.3718 19.1534 14.8558 19.1533 15.4229H20.8965C20.9797 15.4228 21.0515 15.3927 21.1123 15.332C21.1733 15.271 21.2041 15.1986 21.2041 15.1152V13.3721ZM13.8135 8.33984C13.1147 8.33984 12.5229 8.58155 12.0391 9.06543C11.5551 9.54926 11.3135 10.141 11.3135 10.8398C11.3135 11.5385 11.5551 12.1303 12.0391 12.6143C12.5229 13.098 13.1147 13.3398 13.8135 13.3398C14.5119 13.3398 15.103 13.0978 15.5869 12.6143C16.0707 12.1303 16.3125 11.5385 16.3125 10.8398C16.3125 10.141 16.0707 9.54926 15.5869 9.06543C15.1031 8.58173 14.5118 8.33992 13.8135 8.33984ZM6.72949 6.25684C6.64634 6.25687 6.57442 6.28686 6.51367 6.34766C6.45267 6.40849 6.42188 6.48112 6.42188 6.56445V8.30762C6.99071 8.30762 7.47469 8.1072 7.87402 7.70703C8.27334 7.307 8.47352 6.82375 8.47363 6.25684H6.72949ZM19.1533 6.25684C19.1534 6.82547 19.3529 7.30976 19.7529 7.70898C20.1529 8.10826 20.6368 8.30761 21.2041 8.30762V6.56445C21.2041 6.48112 21.1733 6.40849 21.1123 6.34766C21.0516 6.28686 20.9797 6.25686 20.8965 6.25684H19.1533Z" fill="white"/>
</svg>
