<svg width="24" height="24" viewBox="0 0 24 24" fill="none" xmlns="http://www.w3.org/2000/svg">
<path d="M3.10254 17.7432C3.10254 17.8202 3.13505 17.8911 3.19922 17.9551C3.26328 18.019 3.33347 18.0508 3.41016 18.0508H19.1729V19.3076H3.41016C2.98344 19.3076 2.61637 19.1536 2.30859 18.8457C2.00059 18.5377 1.84668 18.17 1.84668 17.7432V7.59668H3.10254V17.7432Z" fill="white"/>
<path d="M13.5068 7.95508C14.2054 7.95515 14.7964 8.19772 15.2803 8.68164C15.764 9.16542 16.0058 9.75635 16.0059 10.4551C16.0059 11.1537 15.7641 11.7455 15.2803 12.2295C14.7964 12.7131 14.2052 12.955 13.5068 12.9551C12.808 12.9551 12.2162 12.7133 11.7324 12.2295C11.2484 11.7455 11.0068 11.1537 11.0068 10.4551C11.0069 9.75643 11.2486 9.16539 11.7324 8.68164C12.2163 8.19764 12.808 7.95508 13.5068 7.95508Z" fill="white"/>
<path fill-rule="evenodd" clip-rule="evenodd" d="M20.5898 4.61523C21.0165 4.61526 21.3836 4.76948 21.6914 5.07715C21.9994 5.38515 22.1533 5.75285 22.1533 6.17969V14.7305C22.1533 15.1573 21.9994 15.525 21.6914 15.833C21.3836 16.1407 21.0166 16.2949 20.5898 16.2949H6.42285C5.99616 16.2949 5.62905 16.1407 5.32129 15.833C5.01329 15.525 4.85938 15.1573 4.85938 14.7305V6.17969C4.85938 5.75285 5.01329 5.38515 5.32129 5.07715C5.62905 4.76947 5.99617 4.61527 6.42285 4.61523H20.5898ZM8.16699 5.87207C8.16691 6.44076 7.96649 6.92497 7.56641 7.32422C7.16627 7.72344 6.68249 7.92285 6.11523 7.92285V12.9873C6.68407 12.9873 7.16805 13.1877 7.56738 13.5879C7.96669 13.9879 8.1669 14.4712 8.16699 15.0381H18.8467C18.8468 14.4694 19.0462 13.9852 19.4463 13.5859C19.8463 13.1866 20.3302 12.9873 20.8975 12.9873V7.92285C20.3286 7.92284 19.8446 7.72242 19.4453 7.32227C19.0462 6.92222 18.8468 6.43899 18.8467 5.87207H8.16699Z" fill="white"/>
</svg>
