<svg width="128" height="128" viewBox="0 0 128 128" fill="none" xmlns="http://www.w3.org/2000/svg">
<path fill-rule="evenodd" clip-rule="evenodd" d="M58.9478 41.7596C90.2563 24.9075 119.003 19.1068 124.692 28.9598C130.029 38.2045 113.282 58.1358 86.2085 75.9979C93.2091 87.1051 96.4664 95.6125 93.9273 97.7C91.2436 99.9054 82.7819 94.3702 72.4937 84.3465C39.8751 102.646 9.20486 109.254 3.30815 99.0408C-2.1951 89.5089 15.7794 68.6142 44.3433 50.3426C35.9455 37.7056 31.7929 27.7497 34.5689 25.4676C37.5048 23.0556 47.3565 29.9043 58.9478 41.7596ZM100.888 34.9871C97.9842 29.9572 81.001 34.2036 61.5269 44.451C64.7527 47.8813 68.082 51.6594 71.4048 55.7029C71.7605 56.1357 72.1109 56.5702 72.4605 57.0018C70.2114 58.1715 67.8161 59.5071 65.3589 60.9754C62.0935 62.9267 59.0863 64.8931 56.4996 66.7371C52.7647 62.1558 49.3704 57.643 46.4068 53.3768C29.4195 64.5694 18.6234 76.1249 21.3765 80.8934C24.5865 86.4508 44.987 80.68 66.9429 68.0037C88.8989 55.3274 104.096 40.5457 100.888 34.9871Z" fill="#FFBAF7"/>
</svg>
