<svg width="424" height="128" viewBox="0 0 424 128" fill="none" xmlns="http://www.w3.org/2000/svg">
<path d="M186.543 48.144C189.786 48.144 193.2 48.5275 196.784 49.2954C200.368 50.0634 204.123 51.3007 208.048 53.0073L203.824 65.5522C200.24 63.8456 196.997 62.6509 194.096 61.9683C191.195 61.2856 188.634 60.9438 186.415 60.9438C180.357 60.9439 177.328 62.9918 177.328 67.0874C177.328 68.7087 177.84 69.9896 178.864 70.9282C179.973 71.8669 181.979 72.7198 184.88 73.4878L192.176 75.4077C198.405 77.029 202.928 79.5037 205.744 82.8315C208.645 86.1595 210.096 90.341 210.096 95.3755C210.096 101.349 208.048 106.214 203.952 109.968C199.941 113.723 193.584 115.6 184.88 115.6C177.456 115.6 169.648 113.893 161.456 110.48L165.424 98.3198C169.435 99.9411 173.062 101.093 176.304 101.776C179.547 102.459 182.448 102.8 185.008 102.8C188.165 102.8 190.768 102.288 192.816 101.264C194.864 100.155 195.888 98.5332 195.888 96.3999C195.888 94.5226 195.206 93.0714 193.84 92.0474C192.56 90.9381 190.213 89.9573 186.8 89.104L179.504 87.1841C173.872 85.7334 169.69 83.3015 166.959 79.8882C164.314 76.4749 162.992 72.4213 162.992 67.728C162.992 62.1815 164.912 57.5305 168.751 53.7759C172.591 50.0213 178.522 48.1441 186.543 48.144Z" fill="white"/>
<path fill-rule="evenodd" clip-rule="evenodd" d="M294.255 114.32H280.303V105.488C276.378 109.413 272.964 112.102 270.063 113.552C267.247 114.918 264.303 115.6 261.231 115.6C254.234 115.6 248.772 112.954 244.847 107.664C241.007 102.373 239.087 94.9493 239.087 85.3921V78.48C239.087 69.1787 241.433 61.7968 246.126 56.3354C250.82 50.8741 257.604 48.144 266.479 48.144C268.698 48.144 270.874 48.357 273.007 48.7837C275.226 49.2103 277.401 49.8078 279.535 50.5757V19.6001H294.255V114.32ZM268.015 61.3276C263.066 61.3276 259.524 62.864 257.391 65.936C255.258 69.008 254.191 73.1894 254.191 78.48V85.3921C254.191 91.1093 255.13 95.2907 257.007 97.936C258.97 100.581 261.7 101.904 265.199 101.904C267.161 101.904 269.253 101.349 271.471 100.24C273.69 99.0451 276.377 96.8261 279.535 93.5835V63.8882C275.353 62.1816 271.514 61.3277 268.015 61.3276Z" fill="white"/>
<path d="M319.401 91.1519C319.401 98.3198 322.047 101.904 327.337 101.904C329.47 101.904 331.774 101.392 334.249 100.368C336.809 99.3437 339.881 97.3813 343.465 94.48V49.4233H358.185V114.32H344.233V105.744C340.308 109.157 336.638 111.674 333.225 113.295C329.812 114.831 326.356 115.6 322.857 115.6C317.054 115.6 312.574 113.637 309.416 109.711C306.259 105.701 304.681 100.112 304.681 92.9438V49.4233H319.401V91.1519Z" fill="white"/>
<path d="M389.204 48.144C392.446 48.144 395.86 48.5274 399.444 49.2954C403.028 50.0634 406.782 51.3008 410.707 53.0073L406.484 65.5522C402.9 63.8457 399.658 62.6509 396.756 61.9683C393.855 61.2856 391.294 60.9438 389.076 60.9438C383.017 60.9439 379.988 62.9917 379.988 67.0874C379.988 68.7087 380.5 69.9896 381.524 70.9282C382.633 71.8668 384.639 72.7199 387.54 73.4878L394.835 75.4077C401.065 77.029 405.588 79.5037 408.404 82.8315C411.305 86.1595 412.756 90.341 412.756 95.3755C412.756 101.349 410.708 106.214 406.612 109.968C402.601 113.723 396.243 115.6 387.54 115.6C380.116 115.6 372.308 113.893 364.116 110.48L368.083 98.3198C372.094 99.9412 375.722 101.093 378.964 101.776C382.207 102.458 385.108 102.8 387.667 102.8C390.825 102.8 393.428 102.288 395.476 101.264C397.524 100.155 398.548 98.5332 398.548 96.3999C398.548 94.5226 397.865 93.0714 396.499 92.0474C395.219 90.9382 392.872 89.9572 389.459 89.104L382.164 87.1841C376.532 85.7334 372.35 83.3014 369.62 79.8882C366.974 76.4749 365.652 72.4213 365.652 67.728C365.652 62.1815 367.572 57.5305 371.412 53.7759C375.252 50.0213 381.182 48.1441 389.204 48.144Z" fill="white"/>
<path d="M230.967 114.32H216.247V49.4233H230.967V114.32Z" fill="white"/>
<path fill-rule="evenodd" clip-rule="evenodd" d="M78.4907 38.9097C115.67 18.8978 149.807 12.009 156.562 23.7095C162.899 34.6879 143.011 58.3568 110.862 79.5679C119.175 92.758 123.043 102.861 120.028 105.339C116.84 107.957 106.792 101.384 94.5756 89.481C55.8413 111.211 19.4209 119.058 12.4184 106.93C5.88368 95.611 27.2278 70.7984 61.1469 49.1011C51.175 34.095 46.2441 22.2731 49.5405 19.563C53.0269 16.6987 64.7259 24.8313 78.4907 38.9097ZM128.294 30.8657C124.845 24.8935 104.678 29.9367 81.5532 42.105C85.3838 46.1785 89.3368 50.6655 93.2827 55.4673C93.7051 55.9814 94.1223 56.4967 94.5376 57.0093C91.8664 58.3985 89.0213 59.9851 86.103 61.729C82.2254 64.0461 78.6542 66.3811 75.5825 68.5708C71.1459 63.1288 67.1152 57.7672 63.5952 52.6997C43.4228 65.9911 30.6052 79.7177 33.8745 85.3804C37.6866 91.9796 61.9123 85.1277 87.9848 70.0747C114.058 55.0214 132.105 37.4664 128.294 30.8657Z" fill="white"/>
<path fill-rule="evenodd" clip-rule="evenodd" d="M312.404 19.6362C314.132 19.6362 315.56 20.056 316.688 20.896C317.571 21.5217 318.207 22.3523 318.596 23.3872V19.9595H322.16V36.564C322.16 39.2037 321.344 40.8919 319.712 42.4038C318.104 43.9158 315.884 44.6723 313.052 44.6724C310.748 44.6724 308.84 44.1444 307.328 43.0884C305.84 42.0564 304.939 40.6757 304.627 38.9478H308.156C308.396 39.7397 308.924 40.3638 309.74 40.8198C310.58 41.2758 311.696 41.5044 313.088 41.5044C314.888 41.5043 316.232 41.0601 317.12 40.1724C318.008 39.2844 318.452 38.352 318.452 36.6001V33.644C318.025 34.6058 317.354 35.3995 316.436 36.0239C315.236 36.8159 313.796 37.2114 312.116 37.2114C310.508 37.2114 309.092 36.828 307.868 36.0601C306.644 35.2921 305.696 34.2239 305.024 32.856C304.352 31.464 304.016 30.8436 304.016 28.9956C304.016 27.1237 304.364 25.4799 305.06 24.064C305.756 22.648 306.728 21.5556 307.976 20.7876C309.248 20.0197 310.724 19.6362 312.404 19.6362ZM313.196 22.6597C311.564 22.6597 310.268 23.2241 309.308 24.3521C308.348 25.456 307.868 26.9917 307.868 28.9595C307.868 30.8795 308.348 31.4037 309.308 32.5317C310.292 33.6357 311.6 34.188 313.232 34.188C314.84 34.188 316.123 33.6235 317.083 32.4956C318.067 31.3677 318.56 30.8199 318.56 28.8521C318.56 26.9321 318.067 25.4199 317.083 24.3159C316.123 23.212 314.828 22.6597 313.196 22.6597Z" fill="white"/>
<path fill-rule="evenodd" clip-rule="evenodd" d="M346.938 19.6001C348.834 19.6001 350.49 20.0078 351.906 20.8237C353.322 21.6157 354.414 22.7202 355.182 24.1362C355.974 25.5522 356.37 27.196 356.37 29.0679C356.37 30.9158 355.974 31.5717 355.182 33.0356C354.414 34.4756 353.322 35.6156 351.906 36.4556C350.49 37.2715 348.834 37.6802 346.938 37.6802C345.066 37.6802 343.422 37.2715 342.006 36.4556C340.59 35.6156 339.486 34.4756 338.694 33.0356C337.902 31.5717 337.506 30.9158 337.506 29.0679C337.506 27.196 337.902 25.5521 338.694 24.1362C339.51 22.7202 340.614 21.6157 342.006 20.8237C343.422 20.0078 345.066 19.6001 346.938 19.6001ZM346.938 22.6597C345.306 22.6597 343.962 23.2362 342.906 24.3882C341.874 25.5401 341.358 27.088 341.358 29.0317C341.358 30.3517 341.586 30.5038 342.042 31.4878C342.522 32.4716 343.182 33.2395 344.022 33.7915C344.886 34.3435 345.858 34.6196 346.938 34.6196C348.066 34.6196 349.038 34.3435 349.854 33.7915C350.694 33.2395 351.354 32.4718 351.834 31.4878C352.314 30.5038 352.554 30.3517 352.554 29.0317C352.554 27.0639 352.026 25.5161 350.97 24.3882C349.938 23.2362 348.594 22.6597 346.938 22.6597Z" fill="white"/>
<path fill-rule="evenodd" clip-rule="evenodd" d="M392.229 19.6001C394.629 19.6001 396.428 20.1638 397.628 21.2915C398.828 22.3955 399.429 24.028 399.429 26.188V33.7915C399.429 34.3435 399.465 34.9079 399.537 35.4839C399.609 36.0599 399.717 36.6718 399.861 37.3198H396.225C396.105 36.8639 396.021 36.36 395.973 35.8081C395.956 35.4068 395.947 34.9417 395.942 34.4136C395.489 35.3552 394.815 36.1076 393.92 36.6714C392.816 37.3433 391.473 37.6801 389.889 37.6802C388.017 37.6802 386.529 37.2238 385.425 36.312C384.321 35.376 383.769 34.1157 383.769 32.5317C383.769 30.8999 384.345 29.6161 385.497 28.6802C386.673 27.7202 388.239 27.4058 390.423 27.0698L395.757 26.5819V26.0435C395.757 24.8676 395.457 23.9915 394.857 23.4155C394.281 22.8156 393.356 22.5161 392.084 22.5161C390.861 22.5162 389.877 22.756 389.133 23.2358C388.413 23.7158 387.993 24.3997 387.873 25.2876H384.309C384.477 23.5597 385.257 22.1799 386.649 21.1479C388.041 20.1159 389.901 19.6001 392.229 19.6001ZM391.113 29.2554C389.889 29.4474 388.965 29.7721 388.341 30.228C387.741 30.684 387.441 31.3437 387.441 32.2075C387.441 33.0475 387.717 33.6837 388.269 34.1157C388.845 34.5236 389.673 34.728 390.752 34.728C392.192 34.728 393.381 34.38 394.317 33.6841C395.277 32.9882 395.757 32.112 395.757 31.0562V28.522L391.113 29.2554Z" fill="white"/>
<path fill-rule="evenodd" clip-rule="evenodd" d="M365.219 23.0405C365.669 22.1252 366.329 21.374 367.2 20.7876C368.4 19.9957 369.84 19.6001 371.52 19.6001C373.176 19.6002 374.603 19.9958 375.803 20.7876C377.027 21.5796 377.964 22.6841 378.612 24.1001C379.284 25.516 379.62 27.172 379.62 29.0679C379.62 30.9878 379.272 31.6679 378.576 33.1079C377.88 34.5478 376.908 35.6636 375.66 36.4556C374.412 37.2475 372.948 37.644 371.268 37.644C369.54 37.644 368.1 37.2354 366.948 36.4194C366.094 35.7967 365.458 34.9959 365.04 34.0171V37.3198H361.475V12.3999H365.219V23.0405ZM370.44 22.7319C368.808 22.7319 367.499 23.3075 366.515 24.4595C365.555 25.5875 365.076 26.1603 365.076 28.1763C365.076 30.144 365.555 31.7041 366.515 32.856C367.499 33.9838 368.819 34.5473 370.475 34.5474C372.107 34.5474 373.404 33.9718 374.364 32.8198C375.324 31.6678 375.803 31.0838 375.803 29.0679C375.803 27.0759 375.324 25.5273 374.364 24.4233C373.404 23.2955 372.096 22.732 370.44 22.7319Z" fill="white"/>
<path d="M332.43 37.3198H328.686V12.3999H332.43V37.3198Z" fill="white"/>
<path d="M409.505 37.3198H405.761V12.3999H409.505V37.3198Z" fill="white"/>
<path d="M231.351 37.1362H215.863V21.9038H231.351V37.1362Z" fill="white"/>
</svg>
