<svg width="424" height="128" viewBox="0 0 424 128" fill="none" xmlns="http://www.w3.org/2000/svg">
<path d="M182.457 43.7334C185.812 43.7334 189.343 44.1327 193.051 44.9326C196.759 45.7326 200.645 47.022 204.706 48.7998L200.335 61.8672C196.627 60.0895 193.272 58.8449 190.271 58.1338C187.269 57.4228 184.621 57.0665 182.325 57.0664C176.057 57.0664 172.922 59.1995 172.922 63.4658C172.922 65.1547 173.451 66.489 174.511 67.4668C175.658 68.4445 177.734 69.3328 180.735 70.1328L188.284 72.1328C194.729 73.8216 199.408 76.3998 202.321 79.8662C205.323 83.3327 206.824 87.6884 206.824 92.9326C206.824 99.1548 204.705 104.223 200.467 108.134C196.317 112.044 189.74 114 180.735 114C173.055 114 164.975 112.222 156.5 108.667L160.606 96C164.756 97.6887 168.508 98.8885 171.862 99.5996C175.217 100.311 178.22 100.667 180.868 100.667C184.135 100.667 186.828 100.133 188.946 99.0664C191.065 97.9109 192.124 96.2219 192.124 94C192.124 92.0445 191.418 90.5325 190.006 89.4658C188.682 88.3103 186.253 87.2892 182.722 86.4004L175.174 84.4004C169.347 82.8893 165.021 80.3551 162.195 76.7998C159.459 73.2443 158.089 69.0215 158.089 64.1328C158.089 58.3552 160.077 53.5106 164.05 49.5996C168.023 45.6888 174.159 43.7334 182.457 43.7334Z" fill="white"/>
<path fill-rule="evenodd" clip-rule="evenodd" d="M293.897 112.666H279.462V103.467C275.401 107.556 271.869 110.356 268.867 111.867C265.954 113.289 262.908 114 259.73 114C252.49 114 246.84 111.243 242.778 105.732C238.806 100.221 236.819 92.4884 236.819 82.5332V75.333C236.819 65.6442 239.247 57.9545 244.103 52.2656C248.958 46.5771 255.978 43.7334 265.159 43.7334C267.455 43.7334 269.706 43.955 271.913 44.3994C274.208 44.8438 276.46 45.4667 278.667 46.2666V14H293.897V112.666ZM266.748 57.4658C261.628 57.4659 257.964 59.0668 255.757 62.2666C253.55 65.4666 252.445 69.8221 252.445 75.333V82.5332C252.445 88.4885 253.417 92.8441 255.359 95.5996C257.39 98.3548 260.215 99.7332 263.834 99.7334C265.865 99.7334 268.029 99.1556 270.324 98C272.62 96.7555 275.401 94.4441 278.667 91.0664V60.1338C274.341 58.3561 270.368 57.4658 266.748 57.4658Z" fill="white"/>
<path d="M319.913 88.5332C319.913 95.9998 322.65 99.7334 328.124 99.7334C330.331 99.7333 332.715 99.1994 335.275 98.1328C337.924 97.0661 341.103 95.022 344.811 92V45.0654H360.04V112.666H345.605V103.732C341.543 107.288 337.747 109.911 334.216 111.6C330.684 113.2 327.108 114 323.488 114C317.485 114 312.851 111.955 309.584 107.866C306.317 103.688 304.684 97.8661 304.684 90.3994V45.0654H319.913V88.5332Z" fill="white"/>
<path d="M392.132 43.7334C395.487 43.7334 399.019 44.1327 402.727 44.9326C406.435 45.7326 410.32 47.0221 414.381 48.7998L410.011 61.8672C406.303 60.0895 402.948 58.8449 399.946 58.1338C396.945 57.4227 394.295 57.0664 391.999 57.0664C385.732 57.0666 382.597 59.1997 382.597 63.4658C382.597 65.1547 383.127 66.489 384.187 67.4668C385.334 68.4445 387.41 69.3329 390.411 70.1328L397.96 72.1328C404.404 73.8217 409.084 76.3998 411.997 79.8662C414.999 83.3327 416.5 87.6885 416.5 92.9326C416.5 99.1548 414.38 104.223 410.143 108.134C405.993 112.044 399.416 114 390.411 114C382.73 114 374.651 112.222 366.176 108.667L370.281 96C374.431 97.6888 378.183 98.8885 381.538 99.5996C384.893 100.311 387.895 100.667 390.544 100.667C393.81 100.667 396.502 100.133 398.621 99.0664C400.74 97.9109 401.8 96.2221 401.8 94C401.8 92.0445 401.094 90.5325 399.682 89.4658C398.357 88.3103 395.929 87.2893 392.397 86.4004L384.85 84.4004C379.023 82.8893 374.695 80.3554 371.87 76.7998C369.133 73.2443 367.765 69.0216 367.765 64.1328C367.765 58.3554 369.751 53.5106 373.724 49.5996C377.697 45.6886 383.833 43.7335 392.132 43.7334Z" fill="white"/>
<path d="M228.418 112.666H213.188V45.0654H228.418V112.666Z" fill="white"/>
<path fill-rule="evenodd" clip-rule="evenodd" d="M74.7471 37.9072C111.926 17.8953 146.063 11.0065 152.818 22.707C159.155 33.6856 139.267 57.3545 107.118 78.5654C115.432 91.7556 119.3 101.859 116.284 104.337C113.097 106.955 103.049 100.381 90.8321 88.4785C52.0979 110.208 15.6776 118.055 8.67485 105.928C2.14004 94.6086 23.4842 69.796 57.4034 48.0986C47.4314 33.0926 42.5006 21.2707 45.7969 18.5605C49.2832 15.696 60.9821 23.8287 74.7471 37.9072ZM124.551 29.8633C121.101 23.891 100.934 28.9342 77.8096 41.1025C81.6402 45.176 85.5933 49.6632 89.5391 54.4648C89.9615 54.9789 90.3787 55.4943 90.794 56.0068C88.1228 57.3961 85.2777 58.9827 82.3594 60.7266C78.4818 63.0437 74.9106 65.3786 71.8389 67.5684C67.4024 62.1264 63.3716 56.7647 59.8516 51.6973C39.6792 64.9887 26.8616 78.7153 30.1309 84.3779C33.9434 90.9768 58.169 84.1251 84.2412 69.0723C110.314 54.019 128.361 36.4641 124.551 29.8633Z" fill="white"/>
<path d="M228.815 32.2666H212.791V16.3994H228.815V32.2666Z" fill="white"/>
</svg>
